<?xml version="1.0" encoding="UTF-8" standalone="no"?>
<!DOCTYPE svg PUBLIC "-//W3C//DTD SVG 1.1//EN"
 "http://www.w3.org/Graphics/SVG/1.1/DTD/svg11.dtd">
<!-- Generated by graphviz version 2.43.0 (0)
 -->
<!-- Title: case Pages: 1 -->
<svg width="959pt" height="430pt"
 viewBox="0.00 0.00 959.00 430.00" xmlns="http://www.w3.org/2000/svg" xmlns:xlink="http://www.w3.org/1999/xlink">
<metadata data-omg-form="package"/>
<metadata data-omg-form="definition"/>
<metadata data-omg-form="usage"/>
<metadata data-omg-form="usage"/>
<metadata data-omg-form="usage"/>
<metadata data-omg-form="usage"/>
<metadata data-omg-form="usage"/>
<metadata data-omg-form="usage"/>
<metadata data-omg-form="usage"/>
<metadata data-omg-form="usage"/>
<metadata data-omg-form="usage"/>
<metadata data-omg-form="package"/>
<metadata data-omg-form="definition"/>
<metadata data-omg-form="usage"/>
<metadata data-omg-form="definition"/>
<metadata data-omg-form="definition"/>
<metadata data-omg-source="17a-Sequence-Modeling"/>
<metadata data-omg-target="17a-Sequence-Modeling::PayloadDefinitions"/>
<metadata data-omg-glyph="dependency"/>
<metadata data-omg-source="17a-Sequence-Modeling"/>
<metadata data-omg-target="17a-Sequence-Modeling::PayloadDefinitions"/>
<metadata data-omg-glyph="containment"/>
<metadata data-omg-source="17a-Sequence-Modeling::PayloadDefinitions"/>
<metadata data-omg-target="17a-Sequence-Modeling::PayloadDefinitions::Subscribe"/>
<metadata data-omg-glyph="containment"/>
<metadata data-omg-source="17a-Sequence-Modeling::PayloadDefinitions::Subscribe"/>
<metadata data-omg-target="17a-Sequence-Modeling::PayloadDefinitions::Subscribe::subscriber"/>
<metadata data-omg-glyph="containment"/>
<metadata data-omg-source="17a-Sequence-Modeling::PayloadDefinitions"/>
<metadata data-omg-target="17a-Sequence-Modeling::PayloadDefinitions::Publish"/>
<metadata data-omg-glyph="containment"/>
<metadata data-omg-source="17a-Sequence-Modeling::PayloadDefinitions"/>
<metadata data-omg-target="17a-Sequence-Modeling::PayloadDefinitions::Deliver"/>
<metadata data-omg-glyph="containment"/>
<metadata data-omg-source="17a-Sequence-Modeling"/>
<metadata data-omg-target="17a-Sequence-Modeling::PubSubSequence"/>
<metadata data-omg-glyph="containment"/>
<metadata data-omg-source="17a-Sequence-Modeling::PubSubSequence"/>
<metadata data-omg-target="17a-Sequence-Modeling::PubSubSequence::producer"/>
<metadata data-omg-glyph="containment"/>
<metadata data-omg-source="17a-Sequence-Modeling::PubSubSequence::producer"/>
<metadata data-omg-target="17a-Sequence-Modeling::PubSubSequence::producer::publish_source_event"/>
<metadata data-omg-glyph="containment"/>
<metadata data-omg-source="17a-Sequence-Modeling::PubSubSequence"/>
<metadata data-omg-target="17a-Sequence-Modeling::PubSubSequence::server"/>
<metadata data-omg-glyph="containment"/>
<metadata data-omg-source="17a-Sequence-Modeling::PubSubSequence::server"/>
<metadata data-omg-target="17a-Sequence-Modeling::PubSubSequence::server::subscribe_target_event"/>
<metadata data-omg-glyph="containment"/>
<metadata data-omg-source="17a-Sequence-Modeling::PubSubSequence::server::subscribe_target_event"/>
<metadata data-omg-target="17a-Sequence-Modeling::PubSubSequence::server::publish_target_event"/>
<metadata data-omg-glyph="succession"/>
<metadata data-omg-source="17a-Sequence-Modeling::PubSubSequence::server"/>
<metadata data-omg-target="17a-Sequence-Modeling::PubSubSequence::server::publish_target_event"/>
<metadata data-omg-glyph="containment"/>
<metadata data-omg-source="17a-Sequence-Modeling::PubSubSequence::server::publish_target_event"/>
<metadata data-omg-target="17a-Sequence-Modeling::PubSubSequence::server::deliver_source_event"/>
<metadata data-omg-glyph="succession"/>
<metadata data-omg-source="17a-Sequence-Modeling::PubSubSequence::server"/>
<metadata data-omg-target="17a-Sequence-Modeling::PubSubSequence::server::deliver_source_event"/>
<metadata data-omg-glyph="containment"/>
<metadata data-omg-source="17a-Sequence-Modeling::PubSubSequence"/>
<metadata data-omg-target="17a-Sequence-Modeling::PubSubSequence::consumer"/>
<metadata data-omg-glyph="containment"/>
<metadata data-omg-source="17a-Sequence-Modeling::PubSubSequence::consumer"/>
<metadata data-omg-target="17a-Sequence-Modeling::PubSubSequence::consumer::subscribe_source_event"/>
<metadata data-omg-glyph="containment"/>
<metadata data-omg-source="17a-Sequence-Modeling::PubSubSequence::consumer::subscribe_source_event"/>
<metadata data-omg-target="17a-Sequence-Modeling::PubSubSequence::consumer::deliver_target_event"/>
<metadata data-omg-glyph="succession"/>
<metadata data-omg-source="17a-Sequence-Modeling::PubSubSequence::consumer"/>
<metadata data-omg-target="17a-Sequence-Modeling::PubSubSequence::consumer::deliver_target_event"/>
<metadata data-omg-glyph="containment"/>
<g id="graph0" class="graph" transform="scale(1 1) rotate(0) translate(4 426)">
<title>case</title>
<polygon fill="white" stroke="transparent" points="-4,4 -4,-426 955,-426 955,4 -4,4"/>
<g id="clust1" class="cluster">
<title>cluster_0</title>
<polygon fill="#e8e9ea" stroke="#888888" stroke-width="2" points="8,-8 8,-414 943,-414 943,-8 8,-8"/>
</g>
<g id="clust2" class="cluster">
<title>cluster_1</title>
<polygon fill="#e8e9ea" stroke="#888888" stroke-width="2" points="559,-154 559,-328.5 935,-328.5 935,-154 559,-154"/>
</g>
<!-- n0 -->
<g id="node1" class="node omg&#45;form&#45;package">
<title>n0</title>
<polygon fill="#e8e9ea" stroke="black" stroke-width="2" points="934.5,-406 797.5,-406 797.5,-370 934.5,-370 934.5,-406"/>
<text text-anchor="start" x="797.5" y="-386.5" font-family="Helvetica,sans-Serif" font-weight="bold" font-size="10.00">17a&#45;Sequence&#45;Modeling</text>
</g>
<!-- n1 -->
<g id="node12" class="node omg&#45;form&#45;package">
<title>n1</title>
<polygon fill="#e8e9ea" stroke="black" stroke-width="2" points="927,-297.5 821,-297.5 821,-261.5 927,-261.5 927,-297.5"/>
<text text-anchor="start" x="821" y="-278" font-family="Helvetica,sans-Serif" font-weight="bold" font-size="10.00">PayloadDefinitions</text>
</g>
<!-- n0&#45;&gt;n1 -->
<g id="edge1" class="edge">
<title>n0&#45;&gt;n1</title>
<path fill="none" stroke="#777777" stroke-dasharray="5,2" d="M867.29,-369.89C868.54,-353.12 870.48,-327.3 871.96,-307.71"/>
<polygon fill="#777777" stroke="#777777" points="875.46,-307.8 872.72,-297.57 868.48,-307.28 875.46,-307.8"/>
<text text-anchor="middle" x="901.5" y="-344.8" font-family="Helvetica,sans-Serif" font-size="9.00">&lt;&lt;import&gt;&gt;*</text>
</g>
<!-- n6 -->
<g id="node2" class="node omg&#45;form&#45;definition">
<title>n6</title>
<polygon fill="#e7e7e7" stroke="black" points="274.5,-406 171.5,-406 171.5,-370 274.5,-370 274.5,-406"/>
<text text-anchor="start" x="187" y="-393.6" font-family="Helvetica,sans-Serif" font-size="8.00">«occurrence def»</text>
<text text-anchor="start" x="174" y="-380" font-family="Helvetica,sans-Serif" font-weight="bold" font-size="10.00">PubSubSequence</text>
</g>
<!-- n7 -->
<g id="node3" class="node omg&#45;form&#45;usage">
<title>n7</title>
<path fill="#dbe9f7" stroke="black" d="M88,-297.5C88,-297.5 56,-297.5 56,-297.5 50,-297.5 44,-291.5 44,-285.5 44,-285.5 44,-273.5 44,-273.5 44,-267.5 50,-261.5 56,-261.5 56,-261.5 88,-261.5 88,-261.5 94,-261.5 100,-267.5 100,-273.5 100,-273.5 100,-285.5 100,-285.5 100,-291.5 94,-297.5 88,-297.5"/>
<text text-anchor="start" x="58" y="-285.1" font-family="Helvetica,sans-Serif" font-size="8.00">«part»</text>
<text text-anchor="start" x="46" y="-271.5" font-family="Helvetica,sans-Serif" font-weight="bold" font-size="10.00">producer</text>
</g>
<!-- n6&#45;&gt;n7 -->
<g id="edge3" class="edge">
<title>n6&#45;&gt;n7</title>
<path fill="none" stroke="#444455" d="M171.31,-364.53C152.02,-354.89 130.56,-342.59 113,-328.5 102.06,-319.72 91.81,-307.72 84.29,-297.91"/>
<polygon fill="#444455" stroke="#444455" points="171.57,-364.66 178.71,-363.68 182.37,-369.89 175.23,-370.88 171.57,-364.66"/>
<text text-anchor="middle" x="80.79" y="-300.71" font-family="Helvetica,sans-Serif" font-size="9.00">1</text>
</g>
<!-- n9 -->
<g id="node5" class="node omg&#45;form&#45;usage">
<title>n9</title>
<path fill="#dbe9f7" stroke="black" d="M308.5,-324C308.5,-324 137.5,-324 137.5,-324 131.5,-324 125.5,-318 125.5,-312 125.5,-312 125.5,-247 125.5,-247 125.5,-241 131.5,-235 137.5,-235 137.5,-235 308.5,-235 308.5,-235 314.5,-235 320.5,-241 320.5,-247 320.5,-247 320.5,-312 320.5,-312 320.5,-318 314.5,-324 308.5,-324"/>
<text text-anchor="start" x="209.5" y="-315.1" font-family="Helvetica,sans-Serif" font-size="8.00">«part»</text>
<text text-anchor="start" x="205" y="-301.5" font-family="Helvetica,sans-Serif" font-weight="bold" font-size="10.00">server</text>
<text text-anchor="start" x="198" y="-288.1" font-family="Helvetica,sans-Serif" font-style="italic" font-size="8.00">successions</text>
<text text-anchor="start" x="128" y="-273.3" font-family="Helvetica,sans-Serif" font-size="9.00">noname first subscribe_target_event then</text>
<text text-anchor="start" x="175.5" y="-263.3" font-family="Helvetica,sans-Serif" font-size="9.00">publish_target_event</text>
<text text-anchor="start" x="128" y="-249.3" font-family="Helvetica,sans-Serif" font-size="9.00">noname first publish_target_event then</text>
<text text-anchor="start" x="171" y="-239.3" font-family="Helvetica,sans-Serif" font-size="9.00">deliver_source_event</text>
<polygon fill="black" stroke="black" points="126,-295.5 126,-295.5 321,-295.5 321,-295.5 126,-295.5"/>
</g>
<!-- n6&#45;&gt;n9 -->
<g id="edge5" class="edge">
<title>n6&#45;&gt;n9</title>
<path fill="none" stroke="#444455" d="M223,-357.75C223,-347.4 223,-335.52 223,-324.22"/>
<polygon fill="#444455" stroke="#444455" points="223,-357.89 227,-363.89 223,-369.89 219,-363.89 223,-357.89"/>
<text text-anchor="middle" x="219.5" y="-327.02" font-family="Helvetica,sans-Serif" font-size="9.00">1</text>
</g>
<!-- n13 -->
<g id="node9" class="node omg&#45;form&#45;usage">
<title>n13</title>
<path fill="#dbe9f7" stroke="black" d="M530.5,-312C530.5,-312 357.5,-312 357.5,-312 351.5,-312 345.5,-306 345.5,-300 345.5,-300 345.5,-259 345.5,-259 345.5,-253 351.5,-247 357.5,-247 357.5,-247 530.5,-247 530.5,-247 536.5,-247 542.5,-253 542.5,-259 542.5,-259 542.5,-300 542.5,-300 542.5,-306 536.5,-312 530.5,-312"/>
<text text-anchor="start" x="430.5" y="-303.1" font-family="Helvetica,sans-Serif" font-size="8.00">«part»</text>
<text text-anchor="start" x="417" y="-289.5" font-family="Helvetica,sans-Serif" font-weight="bold" font-size="10.00">consumer</text>
<text text-anchor="start" x="419" y="-276.1" font-family="Helvetica,sans-Serif" font-style="italic" font-size="8.00">successions</text>
<text text-anchor="start" x="348" y="-261.3" font-family="Helvetica,sans-Serif" font-size="9.00">noname first subscribe_source_event then</text>
<text text-anchor="start" x="398" y="-251.3" font-family="Helvetica,sans-Serif" font-size="9.00">deliver_target_event</text>
<polygon fill="black" stroke="black" points="346,-283.5 346,-283.5 543,-283.5 543,-283.5 346,-283.5"/>
</g>
<!-- n6&#45;&gt;n13 -->
<g id="edge11" class="edge">
<title>n6&#45;&gt;n13</title>
<path fill="none" stroke="#444455" d="M269.62,-364.53C301.18,-349.33 343.32,-329.02 378.27,-312.17"/>
<polygon fill="#444455" stroke="#444455" points="269.32,-364.68 265.65,-370.89 258.51,-369.89 262.18,-363.68 269.32,-364.68"/>
<text text-anchor="middle" x="374.77" y="-314.97" font-family="Helvetica,sans-Serif" font-size="9.00">1</text>
</g>
<!-- n8 -->
<g id="node4" class="node omg&#45;form&#45;usage">
<title>n8</title>
<path fill="#e7e7e7" stroke="black" d="M130,-198C130,-198 28,-198 28,-198 22,-198 16,-192 16,-186 16,-186 16,-174 16,-174 16,-168 22,-162 28,-162 28,-162 130,-162 130,-162 136,-162 142,-168 142,-174 142,-174 142,-186 142,-186 142,-192 136,-198 130,-198"/>
<text text-anchor="start" x="38" y="-185.6" font-family="Helvetica,sans-Serif" font-size="8.00">«event occurrence»</text>
<text text-anchor="start" x="18" y="-172" font-family="Helvetica,sans-Serif" font-weight="bold" font-size="10.00">publish_source_event</text>
</g>
<!-- n7&#45;&gt;n8 -->
<g id="edge4" class="edge">
<title>n7&#45;&gt;n8</title>
<path fill="none" stroke="#444455" d="M74.14,-248.74C75.32,-232.21 76.76,-212.24 77.76,-198.28"/>
<polygon fill="none" stroke="#444455" points="74.11,-249.1 77.67,-255.37 73.25,-261.07 69.69,-254.8 74.11,-249.1"/>
</g>
<!-- n10 -->
<g id="node6" class="node omg&#45;form&#45;usage">
<title>n10</title>
<path fill="#e7e7e7" stroke="black" d="M292.5,-198C292.5,-198 179.5,-198 179.5,-198 173.5,-198 167.5,-192 167.5,-186 167.5,-186 167.5,-174 167.5,-174 167.5,-168 173.5,-162 179.5,-162 179.5,-162 292.5,-162 292.5,-162 298.5,-162 304.5,-168 304.5,-174 304.5,-174 304.5,-186 304.5,-186 304.5,-192 298.5,-198 292.5,-198"/>
<text text-anchor="start" x="195.5" y="-185.6" font-family="Helvetica,sans-Serif" font-size="8.00">«event occurrence»</text>
<text text-anchor="start" x="170" y="-172" font-family="Helvetica,sans-Serif" font-weight="bold" font-size="10.00">subscribe_target_event</text>
</g>
<!-- n9&#45;&gt;n10 -->
<g id="edge6" class="edge">
<title>n9&#45;&gt;n10</title>
<path fill="none" stroke="#444455" d="M230.4,-222.99C231.6,-214 232.76,-205.32 233.71,-198.21"/>
<polygon fill="none" stroke="#444455" points="230.4,-222.99 233.57,-229.46 228.82,-234.88 225.64,-228.41 230.4,-222.99"/>
</g>
<!-- n11 -->
<g id="node7" class="node omg&#45;form&#45;usage">
<title>n11</title>
<path fill="#e7e7e7" stroke="black" d="M320,-125C320,-125 220,-125 220,-125 214,-125 208,-119 208,-113 208,-113 208,-101 208,-101 208,-95 214,-89 220,-89 220,-89 320,-89 320,-89 326,-89 332,-95 332,-101 332,-101 332,-113 332,-113 332,-119 326,-125 320,-125"/>
<text text-anchor="start" x="229" y="-112.6" font-family="Helvetica,sans-Serif" font-size="8.00">«event occurrence»</text>
<text text-anchor="start" x="210" y="-99" font-family="Helvetica,sans-Serif" font-weight="bold" font-size="10.00">publish_target_event</text>
</g>
<!-- n9&#45;&gt;n11 -->
<g id="edge8" class="edge">
<title>n9&#45;&gt;n11</title>
<path fill="none" stroke="#444455" d="M297.74,-226.29C305.5,-217.75 312.27,-208.29 317,-198 325.18,-180.24 324.58,-172.03 317,-154 312.31,-142.84 303.44,-133.04 294.67,-125.38"/>
<polygon fill="none" stroke="#444455" points="297.73,-226.29 296.39,-233.37 289.33,-234.85 290.68,-227.77 297.73,-226.29"/>
</g>
<!-- n12 -->
<g id="node8" class="node omg&#45;form&#45;usage">
<title>n12</title>
<path fill="#e7e7e7" stroke="black" d="M364.5,-52C364.5,-52 263.5,-52 263.5,-52 257.5,-52 251.5,-46 251.5,-40 251.5,-40 251.5,-28 251.5,-28 251.5,-22 257.5,-16 263.5,-16 263.5,-16 364.5,-16 364.5,-16 370.5,-16 376.5,-22 376.5,-28 376.5,-28 376.5,-40 376.5,-40 376.5,-46 370.5,-52 364.5,-52"/>
<text text-anchor="start" x="273.5" y="-39.6" font-family="Helvetica,sans-Serif" font-size="8.00">«event occurrence»</text>
<text text-anchor="start" x="254" y="-26" font-family="Helvetica,sans-Serif" font-weight="bold" font-size="10.00">deliver_source_event</text>
</g>
<!-- n9&#45;&gt;n12 -->
<g id="edge10" class="edge">
<title>n9&#45;&gt;n12</title>
<path fill="none" stroke="#444455" d="M305.86,-226.33C313.98,-217.87 321.04,-208.42 326,-198 347.16,-153.61 357.67,-136.51 345,-89 341.49,-75.84 333.93,-62.55 327.15,-52.45"/>
<polygon fill="none" stroke="#444455" points="305.71,-226.48 304.15,-233.52 297.06,-234.79 298.61,-227.75 305.71,-226.48"/>
</g>
<!-- n10&#45;&gt;n11 -->
<g id="edge7" class="edge">
<title>n10&#45;&gt;n11</title>
<path fill="none" stroke="#444444" stroke-dasharray="5,2" d="M244.23,-161.81C248.2,-153.53 253.04,-143.41 257.46,-134.19"/>
<polygon fill="#444444" stroke="#444444" points="260.68,-135.56 261.85,-125.03 254.37,-132.54 260.68,-135.56"/>
</g>
<!-- n11&#45;&gt;n12 -->
<g id="edge9" class="edge">
<title>n11&#45;&gt;n12</title>
<path fill="none" stroke="#444444" stroke-dasharray="5,2" d="M280.65,-88.81C285.89,-80.35 292.32,-69.98 298.13,-60.61"/>
<polygon fill="#444444" stroke="#444444" points="301.15,-62.37 303.45,-52.03 295.2,-58.69 301.15,-62.37"/>
</g>
<!-- n14 -->
<g id="node10" class="node omg&#45;form&#45;usage">
<title>n14</title>
<path fill="#e7e7e7" stroke="black" d="M512,-198C512,-198 396,-198 396,-198 390,-198 384,-192 384,-186 384,-186 384,-174 384,-174 384,-168 390,-162 396,-162 396,-162 512,-162 512,-162 518,-162 524,-168 524,-174 524,-174 524,-186 524,-186 524,-192 518,-198 512,-198"/>
<text text-anchor="start" x="413" y="-185.6" font-family="Helvetica,sans-Serif" font-size="8.00">«event occurrence»</text>
<text text-anchor="start" x="386" y="-172" font-family="Helvetica,sans-Serif" font-weight="bold" font-size="10.00">subscribe_source_event</text>
</g>
<!-- n13&#45;&gt;n14 -->
<g id="edge12" class="edge">
<title>n13&#45;&gt;n14</title>
<path fill="none" stroke="#444455" d="M448.5,-234.66C449.83,-221.67 451.21,-208.22 452.25,-198.03"/>
<polygon fill="none" stroke="#444455" points="448.47,-234.91 451.84,-241.28 447.25,-246.84 443.88,-240.47 448.47,-234.91"/>
</g>
<!-- n15 -->
<g id="node11" class="node omg&#45;form&#45;usage">
<title>n15</title>
<path fill="#e7e7e7" stroke="black" d="M551,-125C551,-125 453,-125 453,-125 447,-125 441,-119 441,-113 441,-113 441,-101 441,-101 441,-95 447,-89 453,-89 453,-89 551,-89 551,-89 557,-89 563,-95 563,-101 563,-101 563,-113 563,-113 563,-119 557,-125 551,-125"/>
<text text-anchor="start" x="461" y="-112.6" font-family="Helvetica,sans-Serif" font-size="8.00">«event occurrence»</text>
<text text-anchor="start" x="443" y="-99" font-family="Helvetica,sans-Serif" font-weight="bold" font-size="10.00">deliver_target_event</text>
</g>
<!-- n13&#45;&gt;n15 -->
<g id="edge14" class="edge">
<title>n13&#45;&gt;n15</title>
<path fill="none" stroke="#444455" d="M505.14,-238.9C518.02,-227.39 529.86,-213.63 537,-198 545.13,-180.21 543.25,-172.53 537,-154 533.41,-143.35 526.26,-133.21 519.36,-125.18"/>
<polygon fill="none" stroke="#444455" points="504.82,-239.17 502.79,-246.1 495.63,-246.89 497.65,-239.97 504.82,-239.17"/>
</g>
<!-- n14&#45;&gt;n15 -->
<g id="edge13" class="edge">
<title>n14&#45;&gt;n15</title>
<path fill="none" stroke="#444444" stroke-dasharray="5,2" d="M465.62,-161.81C471.4,-153.27 478.49,-142.77 484.88,-133.32"/>
<polygon fill="#444444" stroke="#444444" points="487.79,-135.27 490.49,-125.03 481.99,-131.35 487.79,-135.27"/>
</g>
<!-- n2 -->
<g id="node13" class="node omg&#45;form&#45;definition">
<title>n2</title>
<polygon fill="#d4f0f4" stroke="black" points="796,-307 734,-307 734,-252 796,-252 796,-307"/>
<text text-anchor="start" x="742.5" y="-298.1" font-family="Helvetica,sans-Serif" font-size="8.00">«item def»</text>
<text text-anchor="start" x="736" y="-284.5" font-family="Helvetica,sans-Serif" font-weight="bold" font-size="10.00">Subscribe</text>
<text text-anchor="start" x="745" y="-271.1" font-family="Helvetica,sans-Serif" font-style="italic" font-size="8.00">attributes</text>
<text text-anchor="start" x="736" y="-256.3" font-family="Helvetica,sans-Serif" font-size="9.00">topic: String</text>
<polygon fill="black" stroke="black" points="734,-278.5 734,-278.5 796,-278.5 796,-278.5 734,-278.5"/>
</g>
<!-- n3 -->
<g id="node14" class="node omg&#45;form&#45;usage">
<title>n3</title>
<path fill="#dbe9f7" stroke="black" d="M785.5,-198C785.5,-198 744.5,-198 744.5,-198 738.5,-198 732.5,-192 732.5,-186 732.5,-186 732.5,-174 732.5,-174 732.5,-168 738.5,-162 744.5,-162 744.5,-162 785.5,-162 785.5,-162 791.5,-162 797.5,-168 797.5,-174 797.5,-174 797.5,-186 797.5,-186 797.5,-192 791.5,-198 785.5,-198"/>
<text text-anchor="start" x="751.5" y="-185.6" font-family="Helvetica,sans-Serif" font-size="8.00">«part»</text>
<text text-anchor="start" x="735" y="-172" font-family="Helvetica,sans-Serif" font-weight="bold" font-size="10.00">subscriber</text>
</g>
<!-- n2&#45;&gt;n3 -->
<g id="edge2" class="edge">
<title>n2&#45;&gt;n3</title>
<path fill="none" stroke="#444455" d="M765,-239.63C765,-225.21 765,-209.59 765,-198.09"/>
<polygon fill="none" stroke="#444455" points="765,-239.86 769,-245.86 765,-251.86 761,-245.86 765,-239.86"/>
</g>
<!-- n4 -->
<g id="node15" class="node omg&#45;form&#45;definition">
<title>n4</title>
<polygon fill="#d4f0f4" stroke="black" points="708.5,-320.5 647.5,-320.5 647.5,-238.5 708.5,-238.5 708.5,-320.5"/>
<text text-anchor="start" x="656" y="-312.1" font-family="Helvetica,sans-Serif" font-size="8.00">«item def»</text>
<text text-anchor="start" x="657" y="-298.5" font-family="Helvetica,sans-Serif" font-weight="bold" font-size="10.00">Publish</text>
<text text-anchor="start" x="658.5" y="-285.1" font-family="Helvetica,sans-Serif" font-style="italic" font-size="8.00">attributes</text>
<text text-anchor="start" x="650" y="-270.3" font-family="Helvetica,sans-Serif" font-size="9.00">topic: String</text>
<text text-anchor="start" x="656" y="-258.1" font-family="Helvetica,sans-Serif" font-style="italic" font-size="8.00">references</text>
<text text-anchor="start" x="650" y="-243.3" font-family="Helvetica,sans-Serif" font-size="9.00">publication</text>
<polygon fill="black" stroke="black" points="648,-292.5 648,-292.5 709,-292.5 709,-292.5 648,-292.5"/>
<polygon fill="black" stroke="black" points="648,-265.5 648,-265.5 709,-265.5 709,-265.5 648,-265.5"/>
</g>
<!-- n5 -->
<g id="node16" class="node omg&#45;form&#45;definition">
<title>n5</title>
<polygon fill="#d4f0f4" stroke="black" points="622.5,-307 567.5,-307 567.5,-252 622.5,-252 622.5,-307"/>
<text text-anchor="start" x="573" y="-298.1" font-family="Helvetica,sans-Serif" font-size="8.00">«item def»</text>
<text text-anchor="start" x="574.5" y="-284.5" font-family="Helvetica,sans-Serif" font-weight="bold" font-size="10.00">Deliver</text>
<text text-anchor="start" x="573" y="-271.1" font-family="Helvetica,sans-Serif" font-style="italic" font-size="8.00">references</text>
<text text-anchor="start" x="570" y="-256.3" font-family="Helvetica,sans-Serif" font-size="9.00">publication</text>
<polygon fill="black" stroke="black" points="568,-278.5 568,-278.5 623,-278.5 623,-278.5 568,-278.5"/>
</g>
</g>
</svg>
