<?xml version="1.0" encoding="UTF-8" standalone="no"?>
<!DOCTYPE svg PUBLIC "-//W3C//DTD SVG 1.1//EN"
 "http://www.w3.org/Graphics/SVG/1.1/DTD/svg11.dtd">
<!-- Generated by graphviz version 2.43.0 (0)
 -->
<!-- Title: tree Pages: 1 -->
<svg width="538pt" height="888pt"
 viewBox="0.00 0.00 538.00 888.00" xmlns="http://www.w3.org/2000/svg" xmlns:xlink="http://www.w3.org/1999/xlink">
<metadata data-omg-form="package"/>
<metadata data-omg-form="definition"/>
<metadata data-omg-form="definition"/>
<metadata data-omg-form="definition"/>
<metadata data-omg-form="usage"/>
<metadata data-omg-form="usage"/>
<metadata data-omg-form="definition"/>
<metadata data-omg-form="usage"/>
<metadata data-omg-form="usage"/>
<metadata data-omg-form="usage"/>
<metadata data-omg-form="definition"/>
<metadata data-omg-source="15_05-Unification of Expression and Constraint Definition"/>
<metadata data-omg-target="15_05-Unification of Expression and Constraint Definition::DiscBrakeConstraint"/>
<metadata data-omg-glyph="containment"/>
<metadata data-omg-source="15_05-Unification of Expression and Constraint Definition::DiscBrakeConstraint"/>
<metadata data-omg-target="15_05-Unification of Expression and Constraint Definition::WheelAssy"/>
<metadata data-omg-glyph="containment"/>
<metadata data-omg-source="15_05-Unification of Expression and Constraint Definition"/>
<metadata data-omg-target="15_05-Unification of Expression and Constraint Definition::DiscBrakeFitConstraint_Alt"/>
<metadata data-omg-glyph="containment"/>
<metadata data-omg-source="15_05-Unification of Expression and Constraint Definition::DiscBrakeFitConstraint_Alt"/>
<metadata data-omg-target="15_05-Unification of Expression and Constraint Definition::DiscBrakeAssy"/>
<metadata data-omg-glyph="containment"/>
<metadata data-omg-source="15_05-Unification of Expression and Constraint Definition"/>
<metadata data-omg-target="15_05-Unification of Expression and Constraint Definition::Vehicle_2"/>
<metadata data-omg-glyph="containment"/>
<metadata data-omg-source="15_05-Unification of Expression and Constraint Definition::Vehicle_2"/>
<metadata data-omg-target="15_05-Unification of Expression and Constraint Definition::Vehicle_2::wheelAssy"/>
<metadata data-omg-glyph="containment"/>
<metadata data-omg-source="15_05-Unification of Expression and Constraint Definition::Vehicle_2::wheelAssy"/>
<metadata data-omg-target="15_05-Unification of Expression and Constraint Definition::WheelAssy"/>
<metadata data-omg-glyph="typing"/>
<metadata data-omg-source="15_05-Unification of Expression and Constraint Definition::Vehicle_2"/>
<metadata data-omg-target="15_05-Unification of Expression and Constraint Definition::Vehicle_2::discBrakeConstraint"/>
<metadata data-omg-glyph="containment"/>
<metadata data-omg-source="15_05-Unification of Expression and Constraint Definition::Vehicle_2::discBrakeConstraint"/>
<metadata data-omg-target="15_05-Unification of Expression and Constraint Definition::DiscBrakeConstraint"/>
<metadata data-omg-glyph="typing"/>
<metadata data-omg-source="15_05-Unification of Expression and Constraint Definition"/>
<metadata data-omg-target="15_05-Unification of Expression and Constraint Definition::WheelAssy"/>
<metadata data-omg-glyph="containment"/>
<metadata data-omg-source="15_05-Unification of Expression and Constraint Definition::WheelAssy"/>
<metadata data-omg-target="15_05-Unification of Expression and Constraint Definition::WheelAssy::wheel"/>
<metadata data-omg-glyph="containment"/>
<metadata data-omg-source="15_05-Unification of Expression and Constraint Definition::WheelAssy"/>
<metadata data-omg-target="15_05-Unification of Expression and Constraint Definition::WheelAssy::discBrakeAssy"/>
<metadata data-omg-glyph="containment"/>
<metadata data-omg-source="15_05-Unification of Expression and Constraint Definition::WheelAssy::discBrakeAssy"/>
<metadata data-omg-target="15_05-Unification of Expression and Constraint Definition::DiscBrakeAssy"/>
<metadata data-omg-glyph="typing"/>
<metadata data-omg-source="15_05-Unification of Expression and Constraint Definition::WheelAssy"/>
<metadata data-omg-target="15_05-Unification of Expression and Constraint Definition::WheelAssy::discBrakeFitConstraint_Alt"/>
<metadata data-omg-glyph="containment"/>
<metadata data-omg-source="15_05-Unification of Expression and Constraint Definition::WheelAssy::discBrakeFitConstraint_Alt"/>
<metadata data-omg-target="15_05-Unification of Expression and Constraint Definition::DiscBrakeFitConstraint_Alt"/>
<metadata data-omg-glyph="typing"/>
<metadata data-omg-source="15_05-Unification of Expression and Constraint Definition"/>
<metadata data-omg-target="15_05-Unification of Expression and Constraint Definition::DiscBrakeAssy"/>
<metadata data-omg-glyph="containment"/>
<g id="graph0" class="graph" transform="scale(1 1) rotate(0) translate(4 884)">
<title>tree</title>
<polygon fill="white" stroke="transparent" points="-4,4 -4,-884 534,-884 534,4 -4,4"/>
<g id="clust1" class="cluster">
<title>cluster_0</title>
<polygon fill="#e8e9ea" stroke="#888888" stroke-width="2" points="8,-8 8,-872 522,-872 522,-8 8,-8"/>
</g>
<!-- n0 -->
<g id="node1" class="node omg&#45;form&#45;package">
<title>n0</title>
<polygon fill="#e8e9ea" stroke="black" stroke-width="2" points="514.5,-847.5 189.5,-847.5 189.5,-811.5 514.5,-811.5 514.5,-847.5"/>
<text text-anchor="start" x="189.5" y="-828" font-family="Helvetica,sans-Serif" font-weight="bold" font-size="10.00">15_05&#45;Unification of Expression and Constraint Definition</text>
</g>
<!-- n1 -->
<g id="node2" class="node omg&#45;form&#45;definition">
<title>n1</title>
<polygon fill="#f7dddd" stroke="black" points="353,-574 119,-574 119,-499 353,-499 353,-574"/>
<text text-anchor="start" x="202" y="-565.1" font-family="Helvetica,sans-Serif" font-size="8.00">«constraint def»</text>
<text text-anchor="start" x="178" y="-551.5" font-family="Helvetica,sans-Serif" font-weight="bold" font-size="10.00">DiscBrakeConstraint</text>
<text text-anchor="start" x="188.5" y="-538.1" font-family="Helvetica,sans-Serif" font-style="italic" font-size="8.00">invocation expressions</text>
<text text-anchor="start" x="121" y="-523.3" font-family="Helvetica,sans-Serif" font-size="9.00">{ wheelAssy&#45;&gt;forAll {in ref w: WheelAssy; 2 *</text>
<text text-anchor="start" x="121" y="-513.3" font-family="Helvetica,sans-Serif" font-size="9.00">w.discBrakeAssy.radius &lt; w.wheel.outerDiameter }</text>
<text text-anchor="start" x="232.5" y="-503.3" font-family="Helvetica,sans-Serif" font-size="9.00">}</text>
<polygon fill="black" stroke="black" points="119,-545.5 119,-545.5 353,-545.5 353,-545.5 119,-545.5"/>
</g>
<!-- n6 -->
<g id="node7" class="node omg&#45;form&#45;definition">
<title>n6</title>
<polygon fill="#dbe9f7" stroke="black" points="172,-453 106,-453 106,-417 172,-417 172,-453"/>
<text text-anchor="start" x="117.5" y="-440.6" font-family="Helvetica,sans-Serif" font-size="8.00">«part def»</text>
<text text-anchor="start" x="108" y="-427" font-family="Helvetica,sans-Serif" font-weight="bold" font-size="10.00">WheelAssy</text>
</g>
<!-- n1&#45;&gt;n6 -->
<g id="edge1" class="edge">
<title>n1&#45;&gt;n6</title>
<path fill="none" stroke="#444455" d="M191.45,-489.8C178.73,-476.75 165.64,-463.33 155.72,-453.15"/>
<polygon fill="none" stroke="#444455" points="191.78,-490.14 198.83,-491.64 200.16,-498.73 193.1,-497.23 191.78,-490.14"/>
<text text-anchor="middle" x="204.5" y="-473.8" font-family="Helvetica,sans-Serif" font-size="9.00">wheelAssy</text>
</g>
<!-- n2 -->
<g id="node3" class="node omg&#45;form&#45;definition">
<title>n2</title>
<polygon fill="#f7dddd" stroke="black" points="424.5,-182 193.5,-182 193.5,-117 424.5,-117 424.5,-182"/>
<text text-anchor="start" x="275.5" y="-173.1" font-family="Helvetica,sans-Serif" font-size="8.00">«constraint def»</text>
<text text-anchor="start" x="233.5" y="-159.5" font-family="Helvetica,sans-Serif" font-weight="bold" font-size="10.00">DiscBrakeFitConstraint_Alt</text>
<text text-anchor="start" x="265.5" y="-146.1" font-family="Helvetica,sans-Serif" font-style="italic" font-size="8.00">operator expressions</text>
<text text-anchor="start" x="196" y="-131.3" font-family="Helvetica,sans-Serif" font-size="9.00">{ 2 * discBrakeAssy.radius &lt; wheel.outerDiameter</text>
<text text-anchor="start" x="306" y="-121.3" font-family="Helvetica,sans-Serif" font-size="9.00">}</text>
<polygon fill="black" stroke="black" points="194,-153.5 194,-153.5 425,-153.5 425,-153.5 194,-153.5"/>
</g>
<!-- n10 -->
<g id="node11" class="node omg&#45;form&#45;definition">
<title>n10</title>
<polygon fill="#dbe9f7" stroke="black" points="272,-71 124,-71 124,-16 272,-16 272,-71"/>
<text text-anchor="start" x="176.5" y="-62.1" font-family="Helvetica,sans-Serif" font-size="8.00">«part def»</text>
<text text-anchor="start" x="156" y="-48.5" font-family="Helvetica,sans-Serif" font-weight="bold" font-size="10.00">DiscBrakeAssy</text>
<text text-anchor="start" x="178" y="-35.1" font-family="Helvetica,sans-Serif" font-style="italic" font-size="8.00">attributes</text>
<text text-anchor="start" x="126" y="-20.3" font-family="Helvetica,sans-Serif" font-size="9.00">radius: LengthValue = 95 [mm]</text>
<polygon fill="black" stroke="black" points="124,-42.5 124,-42.5 272,-42.5 272,-42.5 124,-42.5"/>
</g>
<!-- n2&#45;&gt;n10 -->
<g id="edge2" class="edge">
<title>n2&#45;&gt;n10</title>
<path fill="none" stroke="#444455" d="M266.1,-108.31C252.82,-95.86 238.52,-82.46 226.47,-71.17"/>
<polygon fill="none" stroke="#444455" points="266.34,-108.53 273.45,-109.71 275.09,-116.73 267.98,-115.55 266.34,-108.53"/>
<text text-anchor="middle" x="285" y="-91.8" font-family="Helvetica,sans-Serif" font-size="9.00">discBrakeAssy</text>
</g>
<!-- n3 -->
<g id="node4" class="node omg&#45;form&#45;definition">
<title>n3</title>
<polygon fill="#dbe9f7" stroke="black" points="164.5,-864 15.5,-864 15.5,-795 164.5,-795 164.5,-864"/>
<text text-anchor="start" x="69" y="-855.1" font-family="Helvetica,sans-Serif" font-size="8.00">«part def»</text>
<text text-anchor="start" x="63.5" y="-841.5" font-family="Helvetica,sans-Serif" font-weight="bold" font-size="10.00">Vehicle_2</text>
<text text-anchor="start" x="70.5" y="-828.1" font-family="Helvetica,sans-Serif" font-style="italic" font-size="8.00">attributes</text>
<text text-anchor="start" x="18" y="-813.3" font-family="Helvetica,sans-Serif" font-size="9.00">length: LengthValue = 4.82 [m]</text>
<text text-anchor="start" x="18" y="-799.3" font-family="Helvetica,sans-Serif" font-size="9.00">mass: MassValue = 1200 [kg]</text>
<polygon fill="black" stroke="black" points="16,-835.5 16,-835.5 165,-835.5 165,-835.5 16,-835.5"/>
</g>
<!-- n4 -->
<g id="node5" class="node omg&#45;form&#45;usage">
<title>n4</title>
<path fill="#dbe9f7" stroke="black" d="M154.5,-628C154.5,-628 29.5,-628 29.5,-628 23.5,-628 17.5,-622 17.5,-616 17.5,-616 17.5,-604 17.5,-604 17.5,-598 23.5,-592 29.5,-592 29.5,-592 154.5,-592 154.5,-592 160.5,-592 166.5,-598 166.5,-604 166.5,-604 166.5,-616 166.5,-616 166.5,-622 160.5,-628 154.5,-628"/>
<text text-anchor="start" x="78.5" y="-615.6" font-family="Helvetica,sans-Serif" font-size="8.00">«part»</text>
<text text-anchor="start" x="20" y="-602" font-family="Helvetica,sans-Serif" font-weight="bold" font-size="10.00">wheelAssy: WheelAssy[4]</text>
</g>
<!-- n3&#45;&gt;n4 -->
<g id="edge3" class="edge">
<title>n3&#45;&gt;n4</title>
<path fill="none" stroke="#444455" d="M90.42,-782.71C90.86,-734.47 91.54,-661.02 91.84,-628.06"/>
<polygon fill="#444455" stroke="#444455" points="90.42,-782.99 94.36,-789.03 90.31,-794.99 86.36,-788.96 90.42,-782.99"/>
</g>
<!-- n5 -->
<g id="node6" class="node omg&#45;form&#45;usage">
<title>n5</title>
<path fill="#f7dddd" stroke="black" d="M345,-758C345,-758 127,-758 127,-758 121,-758 115,-752 115,-746 115,-746 115,-658 115,-658 115,-652 121,-646 127,-646 127,-646 345,-646 345,-646 351,-646 357,-652 357,-658 357,-658 357,-746 357,-746 357,-752 351,-758 345,-758"/>
<text text-anchor="start" x="210" y="-749.6" font-family="Helvetica,sans-Serif" font-size="8.00">«constraint»</text>
<text text-anchor="start" x="117" y="-736" font-family="Helvetica,sans-Serif" font-weight="bold" font-size="10.00">discBrakeConstraint: DiscBrakeConstraint</text>
<text text-anchor="start" x="228" y="-722.6" font-family="Helvetica,sans-Serif" font-style="italic" font-size="8.00">doc</text>
<text text-anchor="start" x="117" y="-707.8" font-family="Helvetica,sans-Serif" font-size="9.00">This constraint is computed, but not asserted.</text>
<text text-anchor="start" x="117" y="-697.8" font-family="Helvetica,sans-Serif" font-size="9.00">This means a tool can identify</text>
<text text-anchor="start" x="117" y="-687.8" font-family="Helvetica,sans-Serif" font-size="9.00">when it is violated without the model being</text>
<text text-anchor="start" x="193.5" y="-677.8" font-family="Helvetica,sans-Serif" font-size="9.00">inconsistent.</text>
<text text-anchor="start" x="212" y="-665.6" font-family="Helvetica,sans-Serif" font-style="italic" font-size="8.00">parameters</text>
<text text-anchor="start" x="117" y="-650.8" font-family="Helvetica,sans-Serif" font-size="9.00">in wheelAssy = Vehicle_2::wheelAssy</text>
<polygon fill="black" stroke="black" points="115,-730 115,-730 357,-730 357,-730 115,-730"/>
<polygon fill="black" stroke="black" points="115,-673 115,-673 357,-673 357,-673 115,-673"/>
</g>
<!-- n3&#45;&gt;n5 -->
<g id="edge5" class="edge">
<title>n3&#45;&gt;n5</title>
<path fill="none" stroke="#444455" d="M138.35,-786.94C149.11,-777.69 160.68,-767.75 171.96,-758.05"/>
<polygon fill="#444455" stroke="#444455" points="138.23,-787.05 136.28,-793.99 129.13,-794.87 131.07,-787.92 138.23,-787.05"/>
</g>
<!-- n4&#45;&gt;n6 -->
<g id="edge4" class="edge">
<title>n4&#45;&gt;n6</title>
<path fill="none" stroke="#222255" d="M92.57,-591.85C93.7,-569.87 97.06,-530.83 107,-499 109.34,-491.5 112.52,-483.8 115.96,-476.49"/>
<polygon fill="none" stroke="#222255" points="126.66,-463.73 128.24,-453.25 120.48,-460.46 126.66,-463.73"/>
<ellipse fill="#222255" stroke="#222255" cx="121.7" cy="-465.63" rx="4" ry="4"/>
<ellipse fill="#222255" stroke="#222255" cx="117.96" cy="-472.7" rx="4" ry="4"/>
</g>
<!-- n5&#45;&gt;n1 -->
<g id="edge6" class="edge">
<title>n5&#45;&gt;n1</title>
<path fill="none" stroke="#222255" d="M236,-645.65C236,-631.12 236,-615.36 236,-600.47"/>
<polygon fill="none" stroke="#222255" points="239.5,-584.28 236,-574.28 232.5,-584.28 239.5,-584.28"/>
<ellipse fill="#222255" stroke="#222255" cx="236" cy="-588.28" rx="4" ry="4"/>
<ellipse fill="#222255" stroke="#222255" cx="236" cy="-596.28" rx="4" ry="4"/>
</g>
<!-- n7 -->
<g id="node8" class="node omg&#45;form&#45;usage">
<title>n7</title>
<path fill="#dbe9f7" stroke="black" d="M101,-335C101,-335 71,-335 71,-335 65,-335 59,-329 59,-323 59,-323 59,-311 59,-311 59,-305 65,-299 71,-299 71,-299 101,-299 101,-299 107,-299 113,-305 113,-311 113,-311 113,-323 113,-323 113,-329 107,-335 101,-335"/>
<text text-anchor="start" x="72.5" y="-322.6" font-family="Helvetica,sans-Serif" font-size="8.00">«part»</text>
<text text-anchor="start" x="62" y="-309" font-family="Helvetica,sans-Serif" font-weight="bold" font-size="10.00">wheel[1]</text>
</g>
<!-- n6&#45;&gt;n7 -->
<g id="edge7" class="edge">
<title>n6&#45;&gt;n7</title>
<path fill="none" stroke="#444455" d="M126.15,-405.87C116.06,-383.8 102.36,-353.81 93.85,-335.19"/>
<polygon fill="#444455" stroke="#444455" points="126.19,-405.97 132.32,-409.76 131.18,-416.88 125.05,-413.09 126.19,-405.97"/>
</g>
<!-- n8 -->
<g id="node9" class="node omg&#45;form&#45;usage">
<title>n8</title>
<path fill="#dbe9f7" stroke="black" d="M232,-236C232,-236 62,-236 62,-236 56,-236 50,-230 50,-224 50,-224 50,-212 50,-212 50,-206 56,-200 62,-200 62,-200 232,-200 232,-200 238,-200 244,-206 244,-212 244,-212 244,-224 244,-224 244,-230 238,-236 232,-236"/>
<text text-anchor="start" x="133" y="-223.6" font-family="Helvetica,sans-Serif" font-size="8.00">«part»</text>
<text text-anchor="start" x="52" y="-210" font-family="Helvetica,sans-Serif" font-weight="bold" font-size="10.00">discBrakeAssy: DiscBrakeAssy[1]</text>
</g>
<!-- n6&#45;&gt;n8 -->
<g id="edge8" class="edge">
<title>n6&#45;&gt;n8</title>
<path fill="none" stroke="#444455" d="M140.1,-404.53C141.8,-358.88 145.01,-272.55 146.37,-236.01"/>
<polygon fill="#444455" stroke="#444455" points="140.09,-404.78 143.86,-410.92 139.64,-416.77 135.87,-410.62 140.09,-404.78"/>
</g>
<!-- n9 -->
<g id="node10" class="node omg&#45;form&#45;usage">
<title>n9</title>
<path fill="#f7dddd" stroke="black" d="M467,-380C467,-380 177,-380 177,-380 171,-380 165,-374 165,-368 165,-368 165,-266 165,-266 165,-260 171,-254 177,-254 177,-254 467,-254 467,-254 473,-254 479,-260 479,-266 479,-266 479,-368 479,-368 479,-374 473,-380 467,-380"/>
<text text-anchor="start" x="282" y="-371.6" font-family="Helvetica,sans-Serif" font-size="8.00">«assert constraint»</text>
<text text-anchor="start" x="167" y="-358" font-family="Helvetica,sans-Serif" font-weight="bold" font-size="10.00">discBrakeFitConstraint_Alt: DiscBrakeFitConstraint_Alt</text>
<text text-anchor="start" x="314" y="-344.6" font-family="Helvetica,sans-Serif" font-style="italic" font-size="8.00">doc</text>
<text text-anchor="start" x="167" y="-329.8" font-family="Helvetica,sans-Serif" font-size="9.00">This constraint is asserted to be true, which</text>
<text text-anchor="start" x="167" y="-319.8" font-family="Helvetica,sans-Serif" font-size="9.00">means that the model</text>
<text text-anchor="start" x="167" y="-309.8" font-family="Helvetica,sans-Serif" font-size="9.00">is inconsistent if it the constraint is</text>
<text text-anchor="start" x="247" y="-299.8" font-family="Helvetica,sans-Serif" font-size="9.00">violated.</text>
<text text-anchor="start" x="298" y="-287.6" font-family="Helvetica,sans-Serif" font-style="italic" font-size="8.00">parameters</text>
<text text-anchor="start" x="167" y="-272.8" font-family="Helvetica,sans-Serif" font-size="9.00">in discBrakeAssy = WheelAssy::discBrakeAssy</text>
<text text-anchor="start" x="167" y="-258.8" font-family="Helvetica,sans-Serif" font-size="9.00">in wheel = WheelAssy::wheel</text>
<polygon fill="black" stroke="black" points="165,-352 165,-352 479,-352 479,-352 165,-352"/>
<polygon fill="black" stroke="black" points="165,-295 165,-295 479,-295 479,-295 165,-295"/>
</g>
<!-- n6&#45;&gt;n9 -->
<g id="edge10" class="edge">
<title>n6&#45;&gt;n9</title>
<path fill="none" stroke="#444455" d="M176.17,-410.44C190.21,-401.54 206.92,-390.95 223.93,-380.17"/>
<polygon fill="#444455" stroke="#444455" points="176.14,-410.46 173.21,-417.05 166,-416.88 168.93,-410.29 176.14,-410.46"/>
</g>
<!-- n8&#45;&gt;n10 -->
<g id="edge9" class="edge">
<title>n8&#45;&gt;n10</title>
<path fill="none" stroke="#222255" d="M152.08,-199.83C159.15,-175.91 172.27,-131.53 182.68,-96.31"/>
<polygon fill="none" stroke="#222255" points="190.65,-81.71 190.13,-71.13 183.94,-79.73 190.65,-81.71"/>
<ellipse fill="#222255" stroke="#222255" cx="186.16" cy="-84.55" rx="4" ry="4"/>
<ellipse fill="#222255" stroke="#222255" cx="183.89" cy="-92.23" rx="4" ry="4"/>
</g>
<!-- n9&#45;&gt;n2 -->
<g id="edge11" class="edge">
<title>n9&#45;&gt;n2</title>
<path fill="none" stroke="#222255" d="M317.12,-253.9C315.95,-238.94 314.7,-223.02 313.54,-208.26"/>
<polygon fill="none" stroke="#222255" points="315.77,-191.97 311.5,-182.28 308.79,-192.52 315.77,-191.97"/>
<ellipse fill="#222255" stroke="#222255" cx="312.59" cy="-196.23" rx="4" ry="4"/>
<ellipse fill="#222255" stroke="#222255" cx="313.22" cy="-204.21" rx="4" ry="4"/>
</g>
</g>
</svg>
