<?xml version="1.0" encoding="UTF-8" standalone="no"?>
<!DOCTYPE svg PUBLIC "-//W3C//DTD SVG 1.1//EN"
 "http://www.w3.org/Graphics/SVG/1.1/DTD/svg11.dtd">
<!-- Generated by graphviz version 2.43.0 (0)
 -->
<!-- Title: view Pages: 1 -->
<svg width="173pt" height="148pt"
 viewBox="0.00 0.00 173.00 148.00" xmlns="http://www.w3.org/2000/svg" xmlns:xlink="http://www.w3.org/1999/xlink">
<metadata data-omg-form="definition"/>
<metadata data-omg-form="usage"/>
<metadata data-omg-form="usage"/>
<metadata data-omg-source="ViewModes::States::Lamp::off"/>
<metadata data-omg-target="ViewModes::States::Lamp::on"/>
<metadata data-omg-glyph="transition"/>
<g id="graph0" class="graph" transform="scale(1 1) rotate(0) translate(4 144)">
<title>view</title>
<polygon fill="white" stroke="transparent" points="-4,4 -4,-144 169,-144 169,4 -4,4"/>
<g id="clust1" class="cluster">
<title>cluster_0</title>
<polygon fill="#ebe2f6" stroke="#888888" stroke-width="2" points="8,-8 8,-132 157,-132 157,-8 8,-8"/>
</g>
<!-- n0 -->
<g id="node1" class="node omg&#45;form&#45;definition">
<title>n0</title>
<polygon fill="#ebe2f6" stroke="black" points="149,-124 95,-124 95,-88 149,-88 149,-124"/>
<text text-anchor="start" x="98" y="-111.6" font-family="Helvetica,sans-Serif" font-size="8.00">«state def»</text>
<text text-anchor="start" x="106.5" y="-98" font-family="Helvetica,sans-Serif" font-weight="bold" font-size="10.00">Lamp</text>
</g>
<!-- n1 -->
<g id="node2" class="node omg&#45;form&#45;usage">
<title>n1</title>
<path fill="#ebe2f6" stroke="black" d="M58,-124C58,-124 28,-124 28,-124 22,-124 16,-118 16,-112 16,-112 16,-100 16,-100 16,-94 22,-88 28,-88 28,-88 58,-88 58,-88 64,-88 70,-94 70,-100 70,-100 70,-112 70,-112 70,-118 64,-124 58,-124"/>
<text text-anchor="start" x="27" y="-111.6" font-family="Helvetica,sans-Serif" font-size="8.00">«state»</text>
<text text-anchor="start" x="35" y="-98" font-family="Helvetica,sans-Serif" font-weight="bold" font-size="10.00">off</text>
</g>
<!-- n2 -->
<g id="node3" class="node omg&#45;form&#45;usage">
<title>n2</title>
<path fill="#ebe2f6" stroke="black" d="M58,-52C58,-52 28,-52 28,-52 22,-52 16,-46 16,-40 16,-40 16,-28 16,-28 16,-22 22,-16 28,-16 28,-16 58,-16 58,-16 64,-16 70,-22 70,-28 70,-28 70,-40 70,-40 70,-46 64,-52 58,-52"/>
<text text-anchor="start" x="27" y="-39.6" font-family="Helvetica,sans-Serif" font-size="8.00">«state»</text>
<text text-anchor="start" x="36" y="-26" font-family="Helvetica,sans-Serif" font-weight="bold" font-size="10.00">on</text>
</g>
<!-- n1&#45;&gt;n2 -->
<g id="edge1" class="edge">
<title>n1&#45;&gt;n2</title>
<path fill="none" stroke="#444444" d="M43,-87.7C43,-79.98 43,-70.71 43,-62.11"/>
<polygon fill="#444444" stroke="#444444" points="46.5,-62.1 43,-52.1 39.5,-62.1 46.5,-62.1"/>
</g>
</g>
</svg>
