<?xml version="1.0" encoding="UTF-8" standalone="no"?>
<!DOCTYPE svg PUBLIC "-//W3C//DTD SVG 1.1//EN"
 "http://www.w3.org/Graphics/SVG/1.1/DTD/svg11.dtd">
<!-- Generated by graphviz version 2.43.0 (0)
 -->
<!-- Title: mixed Pages: 1 -->
<svg width="1104pt" height="725pt"
 viewBox="0.00 0.00 1104.00 725.00" xmlns="http://www.w3.org/2000/svg" xmlns:xlink="http://www.w3.org/1999/xlink">
<metadata data-omg-form="package"/>
<metadata data-omg-form="package"/>
<metadata data-omg-form="definition"/>
<metadata data-omg-form="usage"/>
<metadata data-omg-form="usage"/>
<metadata data-omg-form="usage"/>
<metadata data-omg-form="usage"/>
<metadata data-omg-form="usage"/>
<metadata data-omg-form="package"/>
<metadata data-omg-form="definition"/>
<metadata data-omg-form="usage"/>
<metadata data-omg-form="definition"/>
<metadata data-omg-form="usage"/>
<metadata data-omg-form="usage"/>
<metadata data-omg-form="definition"/>
<metadata data-omg-form="usage"/>
<metadata data-omg-form="usage"/>
<metadata data-omg-form="usage"/>
<metadata data-omg-form="note"/>
<metadata data-omg-form="usage"/>
<metadata data-omg-form="usage"/>
<metadata data-omg-form="usage"/>
<metadata data-omg-source="10a-Analysis"/>
<metadata data-omg-target="10a-Analysis::VehicleDesignModel"/>
<metadata data-omg-glyph="containment"/>
<metadata data-omg-source="10a-Analysis::VehicleDesignModel"/>
<metadata data-omg-target="10a-Analysis::VehicleDesignModel::Vehicle"/>
<metadata data-omg-glyph="containment"/>
<metadata data-omg-source="10a-Analysis::VehicleDesignModel"/>
<metadata data-omg-target="10a-Analysis::VehicleDesignModel::vehicle"/>
<metadata data-omg-glyph="containment"/>
<metadata data-omg-source="10a-Analysis::VehicleDesignModel::vehicle"/>
<metadata data-omg-target="10a-Analysis::VehicleDesignModel::vehicle::engine"/>
<metadata data-omg-glyph="containment"/>
<metadata data-omg-source="10a-Analysis::VehicleDesignModel::vehicle"/>
<metadata data-omg-target="10a-Analysis::VehicleDesignModel::vehicle::transmission"/>
<metadata data-omg-glyph="containment"/>
<metadata data-omg-source="10a-Analysis::VehicleDesignModel::vehicle"/>
<metadata data-omg-target="10a-Analysis::VehicleDesignModel::vehicle::frontAxleAssembly"/>
<metadata data-omg-glyph="containment"/>
<metadata data-omg-source="10a-Analysis::VehicleDesignModel::vehicle"/>
<metadata data-omg-target="10a-Analysis::VehicleDesignModel::vehicle::rearAxleAssembly"/>
<metadata data-omg-glyph="containment"/>
<metadata data-omg-source="10a-Analysis"/>
<metadata data-omg-target="10a-Analysis::VehicleAnalysisModel"/>
<metadata data-omg-glyph="containment"/>
<metadata data-omg-source="10a-Analysis::VehicleAnalysisModel"/>
<metadata data-omg-target="10a-Analysis::VehicleDesignModel::Vehicle"/>
<metadata data-omg-glyph="dependency"/>
<metadata data-omg-source="10a-Analysis::VehicleAnalysisModel"/>
<metadata data-omg-target="10a-Analysis::VehicleAnalysisModel::MassAnalysisObjective"/>
<metadata data-omg-glyph="containment"/>
<metadata data-omg-source="10a-Analysis::VehicleAnalysisModel::MassAnalysisObjective"/>
<metadata data-omg-target="10a-Analysis::VehicleAnalysisModel::MassAnalysisObjective::mass"/>
<metadata data-omg-glyph="containment"/>
<metadata data-omg-source="10a-Analysis::VehicleAnalysisModel"/>
<metadata data-omg-target="10a-Analysis::VehicleAnalysisModel::MassAnalysisCase"/>
<metadata data-omg-glyph="containment"/>
<metadata data-omg-source="10a-Analysis::VehicleAnalysisModel::MassAnalysisCase"/>
<metadata data-omg-target="10a-Analysis::VehicleAnalysisModel::MassAnalysisCase::vehicle"/>
<metadata data-omg-glyph="containment"/>
<metadata data-omg-source="10a-Analysis::VehicleAnalysisModel::MassAnalysisCase::vehicle"/>
<metadata data-omg-target="10a-Analysis::VehicleDesignModel::Vehicle"/>
<metadata data-omg-glyph="typing"/>
<metadata data-omg-source="10a-Analysis::VehicleAnalysisModel::MassAnalysisCase"/>
<metadata data-omg-target="10a-Analysis::VehicleAnalysisModel::MassAnalysisCase::obj"/>
<metadata data-omg-glyph="requirement_edge"/>
<metadata data-omg-source="10a-Analysis::VehicleAnalysisModel::MassAnalysisCase::obj"/>
<metadata data-omg-target="10a-Analysis::VehicleAnalysisModel::MassAnalysisObjective"/>
<metadata data-omg-glyph="typing"/>
<metadata data-omg-source="10a-Analysis::VehicleAnalysisModel"/>
<metadata data-omg-target="10a-Analysis::VehicleAnalysisModel::AnalysisPlan"/>
<metadata data-omg-glyph="containment"/>
<metadata data-omg-source="10a-Analysis::VehicleAnalysisModel::AnalysisPlan"/>
<metadata data-omg-target="10a-Analysis::VehicleAnalysisModel::AnalysisPlan::vehicle"/>
<metadata data-omg-glyph="containment"/>
<metadata data-omg-source="10a-Analysis::VehicleAnalysisModel::AnalysisPlan::vehicle"/>
<metadata data-omg-target="10a-Analysis::VehicleDesignModel::Vehicle"/>
<metadata data-omg-glyph="typing"/>
<metadata data-omg-source="10a-Analysis::VehicleAnalysisModel::AnalysisPlan"/>
<metadata data-omg-target="10a-Analysis::VehicleAnalysisModel::AnalysisPlan::obj"/>
<metadata data-omg-glyph="requirement_edge"/>
<metadata data-omg-source="00000000-0000-0000-0000-000000000097"/>
<metadata data-omg-target="10a-Analysis::VehicleAnalysisModel::AnalysisPlan::massAnalysisCase"/>
<metadata data-omg-glyph="annotation"/>
<metadata data-omg-source="10a-Analysis::VehicleAnalysisModel::AnalysisPlan::massAnalysisCase"/>
<metadata data-omg-target="10a-Analysis::VehicleAnalysisModel::MassAnalysisCase"/>
<metadata data-omg-glyph="typing"/>
<metadata data-omg-source="10a-Analysis::VehicleAnalysisModel::AnalysisPlan"/>
<metadata data-omg-target="10a-Analysis::VehicleAnalysisModel::AnalysisPlan::massAnalysisCase"/>
<metadata data-omg-glyph="containment"/>
<metadata data-omg-source="10a-Analysis::VehicleAnalysisModel"/>
<metadata data-omg-target="10a-Analysis::VehicleAnalysisModel::massAnalysisContext"/>
<metadata data-omg-glyph="containment"/>
<metadata data-omg-source="10a-Analysis::VehicleAnalysisModel::massAnalysisContext::analysisPlan"/>
<metadata data-omg-target="10a-Analysis::VehicleAnalysisModel::AnalysisPlan"/>
<metadata data-omg-glyph="typing"/>
<metadata data-omg-source="10a-Analysis::VehicleAnalysisModel::massAnalysisContext::analysisPlan"/>
<metadata data-omg-target="10a-Analysis::VehicleAnalysisModel::massAnalysisContext::analysisPlan::vehicle"/>
<metadata data-omg-glyph="containment"/>
<metadata data-omg-source="10a-Analysis::VehicleAnalysisModel::massAnalysisContext::analysisPlan::vehicle"/>
<metadata data-omg-target="10a-Analysis::VehicleDesignModel::vehicle"/>
<metadata data-omg-glyph="connector"/>
<metadata data-omg-source="10a-Analysis::VehicleAnalysisModel::massAnalysisContext"/>
<metadata data-omg-target="10a-Analysis::VehicleAnalysisModel::massAnalysisContext::analysisPlan"/>
<metadata data-omg-glyph="containment"/>
<g id="graph0" class="graph" transform="scale(1 1) rotate(0) translate(4 721)">
<title>mixed</title>
<polygon fill="white" stroke="transparent" points="-4,4 -4,-721 1100,-721 1100,4 -4,4"/>
<g id="clust1" class="cluster">
<title>cluster_0</title>
<polygon fill="#e8e9ea" stroke="#888888" stroke-width="2" points="8,-8 8,-709 1088,-709 1088,-8 8,-8"/>
</g>
<g id="clust2" class="cluster">
<title>cluster_1</title>
<polygon fill="#e8e9ea" stroke="#888888" stroke-width="2" points="637,-16 637,-150.5 1080,-150.5 1080,-16 637,-16"/>
</g>
<g id="clust3" class="cluster">
<title>cluster_8</title>
<polygon fill="#e8e9ea" stroke="#888888" stroke-width="2" points="98,-16 98,-701 629,-701 629,-16 98,-16"/>
</g>
<!-- n0 -->
<g id="node1" class="node omg&#45;form&#45;package">
<title>n0</title>
<polygon fill="#e8e9ea" stroke="black" stroke-width="2" points="89.5,-693 16.5,-693 16.5,-657 89.5,-657 89.5,-693"/>
<text text-anchor="start" x="16.5" y="-673.5" font-family="Helvetica,sans-Serif" font-weight="bold" font-size="10.00">10a&#45;Analysis</text>
</g>
<!-- n1 -->
<g id="node2" class="node omg&#45;form&#45;package">
<title>n1</title>
<polygon fill="#e8e9ea" stroke="black" stroke-width="2" points="1037.5,-142.5 922.5,-142.5 922.5,-106.5 1037.5,-106.5 1037.5,-142.5"/>
<text text-anchor="start" x="922.5" y="-123" font-family="Helvetica,sans-Serif" font-weight="bold" font-size="10.00">VehicleDesignModel</text>
</g>
<!-- n2 -->
<g id="node3" class="node omg&#45;form&#45;definition">
<title>n2</title>
<polygon fill="#dbe9f7" stroke="black" points="699,-142.5 645,-142.5 645,-106.5 699,-106.5 699,-142.5"/>
<text text-anchor="start" x="651" y="-130.1" font-family="Helvetica,sans-Serif" font-size="8.00">«part def»</text>
<text text-anchor="start" x="651.5" y="-116.5" font-family="Helvetica,sans-Serif" font-weight="bold" font-size="10.00">Vehicle</text>
</g>
<!-- n3 -->
<g id="node4" class="node omg&#45;form&#45;usage">
<title>n3</title>
<path fill="#dbe9f7" stroke="black" d="M851,-142.5C851,-142.5 821,-142.5 821,-142.5 815,-142.5 809,-136.5 809,-130.5 809,-130.5 809,-118.5 809,-118.5 809,-112.5 815,-106.5 821,-106.5 821,-106.5 851,-106.5 851,-106.5 857,-106.5 863,-112.5 863,-118.5 863,-118.5 863,-130.5 863,-130.5 863,-136.5 857,-142.5 851,-142.5"/>
<text text-anchor="start" x="822.5" y="-130.1" font-family="Helvetica,sans-Serif" font-size="8.00">«part»</text>
<text text-anchor="start" x="816" y="-116.5" font-family="Helvetica,sans-Serif" font-weight="bold" font-size="10.00">vehicle</text>
</g>
<!-- n4 -->
<g id="node5" class="node omg&#45;form&#45;usage">
<title>n4</title>
<path fill="#dbe9f7" stroke="black" d="M957,-60C957,-60 927,-60 927,-60 921,-60 915,-54 915,-48 915,-48 915,-36 915,-36 915,-30 921,-24 927,-24 927,-24 957,-24 957,-24 963,-24 969,-30 969,-36 969,-36 969,-48 969,-48 969,-54 963,-60 957,-60"/>
<text text-anchor="start" x="928.5" y="-47.6" font-family="Helvetica,sans-Serif" font-size="8.00">«part»</text>
<text text-anchor="start" x="923" y="-34" font-family="Helvetica,sans-Serif" font-weight="bold" font-size="10.00">engine</text>
</g>
<!-- n3&#45;&gt;n4 -->
<g id="edge1" class="edge">
<title>n3&#45;&gt;n4</title>
<path fill="none" stroke="#444455" d="M868.31,-98.96C884.89,-86.37 904.66,-71.36 919.55,-60.05"/>
<polygon fill="#444455" stroke="#444455" points="868.04,-99.17 865.68,-105.98 858.48,-106.43 860.84,-99.61 868.04,-99.17"/>
</g>
<!-- n5 -->
<g id="node6" class="node omg&#45;form&#45;usage">
<title>n5</title>
<path fill="#dbe9f7" stroke="black" d="M1059.5,-60C1059.5,-60 1006.5,-60 1006.5,-60 1000.5,-60 994.5,-54 994.5,-48 994.5,-48 994.5,-36 994.5,-36 994.5,-30 1000.5,-24 1006.5,-24 1006.5,-24 1059.5,-24 1059.5,-24 1065.5,-24 1071.5,-30 1071.5,-36 1071.5,-36 1071.5,-48 1071.5,-48 1071.5,-54 1065.5,-60 1059.5,-60"/>
<text text-anchor="start" x="1019.5" y="-47.6" font-family="Helvetica,sans-Serif" font-size="8.00">«part»</text>
<text text-anchor="start" x="997" y="-34" font-family="Helvetica,sans-Serif" font-weight="bold" font-size="10.00">transmission</text>
</g>
<!-- n3&#45;&gt;n5 -->
<g id="edge2" class="edge">
<title>n3&#45;&gt;n5</title>
<path fill="none" stroke="#444455" d="M874.92,-107.6C909.51,-93.46 959.81,-72.91 994.33,-58.8"/>
<polygon fill="#444455" stroke="#444455" points="874.5,-107.77 870.46,-113.74 863.39,-112.31 867.43,-106.33 874.5,-107.77"/>
</g>
<!-- n6 -->
<g id="node7" class="node omg&#45;form&#45;usage">
<title>n6</title>
<path fill="#dbe9f7" stroke="black" d="M745,-60C745,-60 657,-60 657,-60 651,-60 645,-54 645,-48 645,-48 645,-36 645,-36 645,-30 651,-24 657,-24 657,-24 745,-24 745,-24 751,-24 757,-30 757,-36 757,-36 757,-48 757,-48 757,-54 751,-60 745,-60"/>
<text text-anchor="start" x="687" y="-47.6" font-family="Helvetica,sans-Serif" font-size="8.00">«part»</text>
<text text-anchor="start" x="647" y="-34" font-family="Helvetica,sans-Serif" font-weight="bold" font-size="10.00">frontAxleAssembly</text>
</g>
<!-- n3&#45;&gt;n6 -->
<g id="edge3" class="edge">
<title>n3&#45;&gt;n6</title>
<path fill="none" stroke="#444455" d="M798.17,-100.94C776.46,-88 749.64,-72 729.68,-60.1"/>
<polygon fill="#444455" stroke="#444455" points="798.37,-101.06 805.58,-100.7 808.68,-107.21 801.48,-107.57 798.37,-101.06"/>
</g>
<!-- n7 -->
<g id="node8" class="node omg&#45;form&#45;usage">
<title>n7</title>
<path fill="#dbe9f7" stroke="black" d="M878,-60C878,-60 794,-60 794,-60 788,-60 782,-54 782,-48 782,-48 782,-36 782,-36 782,-30 788,-24 794,-24 794,-24 878,-24 878,-24 884,-24 890,-30 890,-36 890,-36 890,-48 890,-48 890,-54 884,-60 878,-60"/>
<text text-anchor="start" x="822" y="-47.6" font-family="Helvetica,sans-Serif" font-size="8.00">«part»</text>
<text text-anchor="start" x="784" y="-34" font-family="Helvetica,sans-Serif" font-weight="bold" font-size="10.00">rearAxleAssembly</text>
</g>
<!-- n3&#45;&gt;n7 -->
<g id="edge4" class="edge">
<title>n3&#45;&gt;n7</title>
<path fill="none" stroke="#444455" d="M836,-94.23C836,-82.75 836,-69.97 836,-60.05"/>
<polygon fill="#444455" stroke="#444455" points="836,-94.43 840,-100.43 836,-106.43 832,-100.43 836,-94.43"/>
</g>
<!-- n8 -->
<g id="node9" class="node omg&#45;form&#45;package">
<title>n8</title>
<polygon fill="#e8e9ea" stroke="black" stroke-width="2" points="621,-693 497,-693 497,-657 621,-657 621,-693"/>
<text text-anchor="start" x="497" y="-673.5" font-family="Helvetica,sans-Serif" font-weight="bold" font-size="10.00">VehicleAnalysisModel</text>
</g>
<!-- n8&#45;&gt;n2 -->
<g id="edge5" class="edge">
<title>n8&#45;&gt;n2</title>
<path fill="none" stroke="#777777" stroke-dasharray="5,2" d="M613.39,-656.95C636.84,-645.89 659,-628.66 659,-603 659,-603 659,-603 659,-215.5 659,-194.22 662.6,-170.4 666.02,-152.61"/>
<polygon fill="#777777" stroke="#777777" points="669.48,-153.14 668.03,-142.65 662.62,-151.76 669.48,-153.14"/>
<text text-anchor="middle" x="689.5" y="-407.3" font-family="Helvetica,sans-Serif" font-size="9.00">&lt;&lt;import&gt;&gt;</text>
</g>
<!-- n9 -->
<g id="node10" class="node omg&#45;form&#45;definition">
<title>n9</title>
<polygon fill="#f7dddd" stroke="black" points="450,-152 316,-152 316,-97 450,-97 450,-152"/>
<text text-anchor="start" x="344.5" y="-143.1" font-family="Helvetica,sans-Serif" font-size="8.00">«requirement def»</text>
<text text-anchor="start" x="318" y="-129.5" font-family="Helvetica,sans-Serif" font-weight="bold" font-size="10.00">MassAnalysisObjective</text>
<text text-anchor="start" x="375" y="-116.1" font-family="Helvetica,sans-Serif" font-style="italic" font-size="8.00">doc</text>
<text text-anchor="start" x="318" y="-101.3" font-family="Helvetica,sans-Serif" font-size="9.00">...</text>
<polygon fill="black" stroke="black" points="316,-123.5 316,-123.5 450,-123.5 450,-123.5 316,-123.5"/>
</g>
<!-- n10 -->
<g id="node11" class="node omg&#45;form&#45;usage">
<title>n10</title>
<path fill="#e7e7e7" stroke="black" d="M398,-60C398,-60 368,-60 368,-60 362,-60 356,-54 356,-48 356,-48 356,-36 356,-36 356,-30 362,-24 368,-24 368,-24 398,-24 398,-24 404,-24 410,-30 410,-36 410,-36 410,-48 410,-48 410,-54 404,-60 398,-60"/>
<text text-anchor="start" x="363" y="-47.6" font-family="Helvetica,sans-Serif" font-size="8.00">«subject»</text>
<text text-anchor="start" x="368.5" y="-34" font-family="Helvetica,sans-Serif" font-weight="bold" font-size="10.00">mass</text>
</g>
<!-- n9&#45;&gt;n10 -->
<g id="edge6" class="edge">
<title>n9&#45;&gt;n10</title>
<path fill="none" stroke="#444455" d="M383,-84.4C383,-75.85 383,-67.23 383,-60.09"/>
<polygon fill="none" stroke="#444455" points="383,-84.69 387,-90.69 383,-96.69 379,-90.69 383,-84.69"/>
</g>
<!-- n11 -->
<g id="node12" class="node omg&#45;form&#45;definition">
<title>n11</title>
<polygon fill="#e7e7e7" stroke="black" points="443,-345 323,-345 323,-290 443,-290 443,-345"/>
<text text-anchor="start" x="352.5" y="-336.1" font-family="Helvetica,sans-Serif" font-size="8.00">«analysis def»</text>
<text text-anchor="start" x="331.5" y="-322.5" font-family="Helvetica,sans-Serif" font-weight="bold" font-size="10.00">MassAnalysisCase</text>
<text text-anchor="start" x="329.5" y="-309.1" font-family="Helvetica,sans-Serif" font-style="italic" font-size="8.00">feature chain expressions</text>
<text text-anchor="start" x="325" y="-294.3" font-family="Helvetica,sans-Serif" font-size="9.00">{ // Result vehicle.mass }</text>
<polygon fill="black" stroke="black" points="323,-316.5 323,-316.5 443,-316.5 443,-316.5 323,-316.5"/>
</g>
<!-- n12 -->
<g id="node13" class="node omg&#45;form&#45;usage">
<title>n12</title>
<path fill="#e7e7e7" stroke="black" d="M538,-234.5C538,-234.5 508,-234.5 508,-234.5 502,-234.5 496,-228.5 496,-222.5 496,-222.5 496,-210.5 496,-210.5 496,-204.5 502,-198.5 508,-198.5 508,-198.5 538,-198.5 538,-198.5 544,-198.5 550,-204.5 550,-210.5 550,-210.5 550,-222.5 550,-222.5 550,-228.5 544,-234.5 538,-234.5"/>
<text text-anchor="start" x="503" y="-222.1" font-family="Helvetica,sans-Serif" font-size="8.00">«subject»</text>
<text text-anchor="start" x="503" y="-208.5" font-family="Helvetica,sans-Serif" font-weight="bold" font-size="10.00">vehicle</text>
</g>
<!-- n11&#45;&gt;n12 -->
<g id="edge7" class="edge">
<title>n11&#45;&gt;n12</title>
<path fill="none" stroke="#444455" d="M430.41,-282.97C453.32,-266.77 479.85,-248.02 498.62,-234.74"/>
<polygon fill="none" stroke="#444455" points="430.32,-283.04 427.73,-289.77 420.52,-289.97 423.11,-283.24 430.32,-283.04"/>
</g>
<!-- n13 -->
<g id="node14" class="node omg&#45;form&#45;usage">
<title>n13</title>
<path fill="#f7dddd" stroke="black" d="M451,-244C451,-244 315,-244 315,-244 309,-244 303,-238 303,-232 303,-232 303,-201 303,-201 303,-195 309,-189 315,-189 315,-189 451,-189 451,-189 457,-189 463,-195 463,-201 463,-201 463,-232 463,-232 463,-238 457,-244 451,-244"/>
<text text-anchor="start" x="352.5" y="-235.1" font-family="Helvetica,sans-Serif" font-size="8.00">«requirement»</text>
<text text-anchor="start" x="305" y="-221.5" font-family="Helvetica,sans-Serif" font-weight="bold" font-size="10.00">obj: MassAnalysisObjective</text>
<text text-anchor="start" x="367.5" y="-208.1" font-family="Helvetica,sans-Serif" font-style="italic" font-size="8.00">subject</text>
<text text-anchor="start" x="305" y="-193.3" font-family="Helvetica,sans-Serif" font-size="9.00">mass = MassAnalysisCase::result</text>
<polygon fill="black" stroke="black" points="303,-215.5 303,-215.5 463,-215.5 463,-215.5 303,-215.5"/>
</g>
<!-- n11&#45;&gt;n13 -->
<g id="edge9" class="edge">
<title>n11&#45;&gt;n13</title>
<path fill="none" stroke="#666666" d="M383,-289.97C383,-278.98 383,-266.06 383,-254.19"/>
<polygon fill="#666666" stroke="#666666" points="386.5,-254.1 383,-244.1 379.5,-254.1 386.5,-254.1"/>
<text text-anchor="middle" x="409" y="-264.8" font-family="Helvetica,sans-Serif" font-size="9.00">«objective»</text>
</g>
<!-- n12&#45;&gt;n2 -->
<g id="edge8" class="edge">
<title>n12&#45;&gt;n2</title>
<path fill="none" stroke="#222255" d="M544.7,-198.3C556.94,-189.11 572.79,-178.08 588,-170 602.35,-162.38 610.26,-161.92 626.78,-154.62"/>
<polygon fill="none" stroke="#222255" points="642.61,-150.4 649.9,-142.71 639.41,-144.18 642.61,-150.4"/>
<ellipse fill="#222255" stroke="#222255" cx="637.45" cy="-149.12" rx="4" ry="4"/>
<ellipse fill="#222255" stroke="#222255" cx="630.34" cy="-152.79" rx="4" ry="4"/>
</g>
<!-- n13&#45;&gt;n9 -->
<g id="edge10" class="edge">
<title>n13&#45;&gt;n9</title>
<path fill="none" stroke="#222255" d="M383,-188.98C383,-185.54 383,-181.91 383,-178.22"/>
<polygon fill="none" stroke="#222255" points="386.5,-162.14 383,-152.14 379.5,-162.14 386.5,-162.14"/>
<ellipse fill="#222255" stroke="#222255" cx="383" cy="-166.14" rx="4" ry="4"/>
<ellipse fill="#222255" stroke="#222255" cx="383" cy="-174.14" rx="4" ry="4"/>
</g>
<!-- n14 -->
<g id="node15" class="node omg&#45;form&#45;definition">
<title>n14</title>
<polygon fill="#e7e7e7" stroke="black" points="454.5,-533 377.5,-533 377.5,-497 454.5,-497 454.5,-533"/>
<text text-anchor="start" x="386" y="-520.6" font-family="Helvetica,sans-Serif" font-size="8.00">«analysis def»</text>
<text text-anchor="start" x="380" y="-507" font-family="Helvetica,sans-Serif" font-weight="bold" font-size="10.00">AnalysisPlan</text>
</g>
<!-- n15 -->
<g id="node16" class="node omg&#45;form&#45;usage">
<title>n15</title>
<path fill="#e7e7e7" stroke="black" d="M470,-427.5C470,-427.5 440,-427.5 440,-427.5 434,-427.5 428,-421.5 428,-415.5 428,-415.5 428,-403.5 428,-403.5 428,-397.5 434,-391.5 440,-391.5 440,-391.5 470,-391.5 470,-391.5 476,-391.5 482,-397.5 482,-403.5 482,-403.5 482,-415.5 482,-415.5 482,-421.5 476,-427.5 470,-427.5"/>
<text text-anchor="start" x="435" y="-415.1" font-family="Helvetica,sans-Serif" font-size="8.00">«subject»</text>
<text text-anchor="start" x="435" y="-401.5" font-family="Helvetica,sans-Serif" font-weight="bold" font-size="10.00">vehicle</text>
</g>
<!-- n14&#45;&gt;n15 -->
<g id="edge11" class="edge">
<title>n14&#45;&gt;n15</title>
<path fill="none" stroke="#444455" d="M426.71,-485.57C433.71,-467 442.62,-443.36 448.55,-427.62"/>
<polygon fill="none" stroke="#444455" points="426.67,-485.68 428.3,-492.7 422.44,-496.91 420.81,-489.88 426.67,-485.68"/>
</g>
<!-- n16 -->
<g id="node17" class="node omg&#45;form&#45;usage">
<title>n16</title>
<path fill="#f7dddd" stroke="black" d="M560.5,-437C560.5,-437 519.5,-437 519.5,-437 513.5,-437 507.5,-431 507.5,-425 507.5,-425 507.5,-394 507.5,-394 507.5,-388 513.5,-382 519.5,-382 519.5,-382 560.5,-382 560.5,-382 566.5,-382 572.5,-388 572.5,-394 572.5,-394 572.5,-425 572.5,-425 572.5,-431 566.5,-437 560.5,-437"/>
<text text-anchor="start" x="510" y="-428.1" font-family="Helvetica,sans-Serif" font-size="8.00">«requirement»</text>
<text text-anchor="start" x="531" y="-414.5" font-family="Helvetica,sans-Serif" font-weight="bold" font-size="10.00">obj</text>
<text text-anchor="start" x="532.5" y="-401.1" font-family="Helvetica,sans-Serif" font-style="italic" font-size="8.00">doc</text>
<text text-anchor="start" x="510" y="-386.3" font-family="Helvetica,sans-Serif" font-size="9.00">...</text>
<polygon fill="black" stroke="black" points="508,-408.5 508,-408.5 573,-408.5 573,-408.5 508,-408.5"/>
</g>
<!-- n14&#45;&gt;n16 -->
<g id="edge13" class="edge">
<title>n14&#45;&gt;n16</title>
<path fill="none" stroke="#666666" d="M436.48,-496.91C453.68,-482.55 478.77,-461.61 499.94,-443.94"/>
<polygon fill="#666666" stroke="#666666" points="502.41,-446.44 507.84,-437.34 497.92,-441.06 502.41,-446.44"/>
<text text-anchor="middle" x="511" y="-457.8" font-family="Helvetica,sans-Serif" font-size="9.00">«objective»</text>
</g>
<!-- n17 -->
<g id="node18" class="node omg&#45;form&#45;usage">
<title>n17</title>
<path fill="#e7e7e7" stroke="black" d="M391,-427.5C391,-427.5 197,-427.5 197,-427.5 191,-427.5 185,-421.5 185,-415.5 185,-415.5 185,-403.5 185,-403.5 185,-397.5 191,-391.5 197,-391.5 197,-391.5 391,-391.5 391,-391.5 397,-391.5 403,-397.5 403,-403.5 403,-403.5 403,-415.5 403,-415.5 403,-421.5 397,-427.5 391,-427.5"/>
<text text-anchor="start" x="271.5" y="-415.1" font-family="Helvetica,sans-Serif" font-size="8.00">«analysis»</text>
<text text-anchor="start" x="187" y="-401.5" font-family="Helvetica,sans-Serif" font-weight="bold" font-size="10.00">massAnalysisCase: MassAnalysisCase</text>
</g>
<!-- n14&#45;&gt;n17 -->
<g id="edge16" class="edge">
<title>n14&#45;&gt;n17</title>
<path fill="none" stroke="#444455" d="M386.48,-488.96C364.08,-469.95 333.88,-444.33 314.18,-427.62"/>
<polygon fill="#444455" stroke="#444455" points="386.7,-489.15 393.87,-489.98 395.85,-496.91 388.69,-496.08 386.7,-489.15"/>
</g>
<!-- n15&#45;&gt;n2 -->
<g id="edge12" class="edge">
<title>n15&#45;&gt;n2</title>
<path fill="none" stroke="#222255" d="M468.25,-391.22C502.61,-346.42 595.21,-225.65 642.83,-163.54"/>
<polygon fill="none" stroke="#222255" points="655.62,-152.62 658.93,-142.55 650.06,-148.36 655.62,-152.62"/>
<ellipse fill="#222255" stroke="#222255" cx="650.41" cy="-153.66" rx="4" ry="4"/>
<ellipse fill="#222255" stroke="#222255" cx="645.54" cy="-160.01" rx="4" ry="4"/>
</g>
<!-- n17&#45;&gt;n11 -->
<g id="edge15" class="edge">
<title>n17&#45;&gt;n11</title>
<path fill="none" stroke="#222255" d="M311.16,-391.15C318.94,-383.28 328.54,-373.57 338.16,-363.85"/>
<polygon fill="none" stroke="#222255" points="352.24,-354.59 356.78,-345.02 347.26,-349.67 352.24,-354.59"/>
<ellipse fill="#222255" stroke="#222255" cx="346.93" cy="-354.97" rx="4" ry="4"/>
<ellipse fill="#222255" stroke="#222255" cx="341.31" cy="-360.66" rx="4" ry="4"/>
</g>
<!-- n18 -->
<g id="node19" class="node omg&#45;form&#45;note">
<title>n18</title>
<polygon fill="#fffbe6" stroke="black" points="346,-547 106,-547 106,-483 352,-483 352,-541 346,-547"/>
<polyline fill="none" stroke="black" points="346,-547 346,-541 "/>
<polyline fill="none" stroke="black" points="352,-541 346,-541 "/>
<text text-anchor="start" x="114" y="-535" font-family="Helvetica,sans-Serif" font-size="10.00">By default, the subject of a nested analysis</text>
<text text-anchor="start" x="114" y="-524" font-family="Helvetica,sans-Serif" font-size="10.00">case bound to that</text>
<text text-anchor="start" x="114" y="-513" font-family="Helvetica,sans-Serif" font-size="10.00">of its containing analysis case or analysis case</text>
<text text-anchor="start" x="114" y="-502" font-family="Helvetica,sans-Serif" font-size="10.00">definition.</text>
</g>
<!-- n18&#45;&gt;n17 -->
<g id="edge14" class="edge">
<title>n18&#45;&gt;n17</title>
<path fill="none" stroke="#aaaaaa" stroke-dasharray="5,2" d="M248.5,-482.95C259.87,-464.85 273.78,-442.7 283.2,-427.69"/>
</g>
<!-- n19 -->
<g id="node20" class="node omg&#45;form&#45;usage">
<title>n19</title>
<path fill="#dbe9f7" stroke="black" d="M459.5,-693C459.5,-693 358.5,-693 358.5,-693 352.5,-693 346.5,-687 346.5,-681 346.5,-681 346.5,-669 346.5,-669 346.5,-663 352.5,-657 358.5,-657 358.5,-657 459.5,-657 459.5,-657 465.5,-657 471.5,-663 471.5,-669 471.5,-669 471.5,-681 471.5,-681 471.5,-687 465.5,-693 459.5,-693"/>
<text text-anchor="start" x="395.5" y="-680.6" font-family="Helvetica,sans-Serif" font-size="8.00">«part»</text>
<text text-anchor="start" x="349" y="-667" font-family="Helvetica,sans-Serif" font-weight="bold" font-size="10.00">massAnalysisContext</text>
</g>
<!-- n20 -->
<g id="node21" class="node omg&#45;form&#45;usage">
<title>n20</title>
<path fill="#e7e7e7" stroke="black" d="M481.5,-620C481.5,-620 350.5,-620 350.5,-620 344.5,-620 338.5,-614 338.5,-608 338.5,-608 338.5,-596 338.5,-596 338.5,-590 344.5,-584 350.5,-584 350.5,-584 481.5,-584 481.5,-584 487.5,-584 493.5,-590 493.5,-596 493.5,-596 493.5,-608 493.5,-608 493.5,-614 487.5,-620 481.5,-620"/>
<text text-anchor="start" x="394" y="-607.6" font-family="Helvetica,sans-Serif" font-size="8.00">«analysis»</text>
<text text-anchor="start" x="341" y="-594" font-family="Helvetica,sans-Serif" font-weight="bold" font-size="10.00">analysisPlan: AnalysisPlan</text>
</g>
<!-- n19&#45;&gt;n20 -->
<g id="edge20" class="edge">
<title>n19&#45;&gt;n20</title>
<path fill="none" stroke="#444455" d="M411.89,-644.69C412.72,-636.29 413.59,-627.42 414.32,-620.03"/>
<polygon fill="#444455" stroke="#444455" points="411.87,-644.87 415.26,-651.23 410.69,-656.81 407.3,-650.45 411.87,-644.87"/>
</g>
<!-- n20&#45;&gt;n14 -->
<g id="edge17" class="edge">
<title>n20&#45;&gt;n14</title>
<path fill="none" stroke="#222255" d="M416,-583.8C416,-576.66 416,-568.01 416,-559.33"/>
<polygon fill="none" stroke="#222255" points="419.5,-543.18 416,-533.18 412.5,-543.18 419.5,-543.18"/>
<ellipse fill="#222255" stroke="#222255" cx="416" cy="-547.18" rx="4" ry="4"/>
<ellipse fill="#222255" stroke="#222255" cx="416" cy="-555.18" rx="4" ry="4"/>
</g>
<!-- n21 -->
<g id="node22" class="node omg&#45;form&#45;usage">
<title>n21</title>
<path fill="#e7e7e7" stroke="black" d="M608.5,-542.5C608.5,-542.5 491.5,-542.5 491.5,-542.5 485.5,-542.5 479.5,-536.5 479.5,-530.5 479.5,-530.5 479.5,-499.5 479.5,-499.5 479.5,-493.5 485.5,-487.5 491.5,-487.5 491.5,-487.5 608.5,-487.5 608.5,-487.5 614.5,-487.5 620.5,-493.5 620.5,-499.5 620.5,-499.5 620.5,-530.5 620.5,-530.5 620.5,-536.5 614.5,-542.5 608.5,-542.5"/>
<text text-anchor="start" x="530" y="-533.6" font-family="Helvetica,sans-Serif" font-size="8.00">«subject»</text>
<text text-anchor="start" x="530" y="-520" font-family="Helvetica,sans-Serif" font-weight="bold" font-size="10.00">vehicle</text>
<text text-anchor="start" x="536.5" y="-506.6" font-family="Helvetica,sans-Serif" font-style="italic" font-size="8.00">values</text>
<text text-anchor="start" x="482" y="-491.8" font-family="Helvetica,sans-Serif" font-size="9.00">= VehicleDesignModel::vehicle</text>
<polygon fill="black" stroke="black" points="480,-514 480,-514 621,-514 621,-514 480,-514"/>
</g>
<!-- n20&#45;&gt;n21 -->
<g id="edge18" class="edge">
<title>n20&#45;&gt;n21</title>
<path fill="none" stroke="#444455" d="M453.26,-577.36C470.31,-566.55 490.57,-553.7 508.14,-542.55"/>
<polygon fill="none" stroke="#444455" points="453.25,-577.37 450.33,-583.96 443.12,-583.8 446.04,-577.21 453.25,-577.37"/>
</g>
<!-- n21&#45;&gt;n3 -->
<g id="edge19" class="edge">
<title>n21&#45;&gt;n3</title>
<path fill="none" stroke="black" stroke-width="5" d="M620.55,-498.65C656.81,-487.33 698.95,-468.28 726,-437 748,-411.55 746,-397.64 746,-364 746,-364 746,-364 746,-215.5 746,-179.48 782.49,-152.84 809,-138.24"/>
<text text-anchor="middle" x="750" y="-315.3" font-family="Helvetica,sans-Serif" font-size="9.00">=</text>
</g>
</g>
</svg>
