<?xml version="1.0" encoding="UTF-8" standalone="no"?>
<!DOCTYPE svg PUBLIC "-//W3C//DTD SVG 1.1//EN"
 "http://www.w3.org/Graphics/SVG/1.1/DTD/svg11.dtd">
<!-- Generated by graphviz version 2.43.0 (0)
 -->
<!-- Title: interconnection Pages: 1 -->
<svg width="407pt" height="166pt"
 viewBox="0.00 0.00 407.00 166.00" xmlns="http://www.w3.org/2000/svg" xmlns:xlink="http://www.w3.org/1999/xlink">
<metadata data-omg-form="package"/>
<metadata data-omg-form="definition"/>
<metadata data-omg-form="package"/>
<metadata data-omg-form="definition"/>
<metadata data-omg-form="definition"/>
<metadata data-omg-form="definition"/>
<metadata data-omg-source="17b-Sequence-Modeling"/>
<metadata data-omg-target="17b-Sequence-Modeling::PayloadDefinitions"/>
<metadata data-omg-glyph="dependency"/>
<g id="graph0" class="graph" transform="scale(1 1) rotate(0) translate(4 162)">
<title>interconnection</title>
<polygon fill="white" stroke="transparent" points="-4,4 -4,-162 403,-162 403,4 -4,4"/>
<g id="clust1" class="cluster">
<title>cluster_0</title>
<polygon fill="#e8e9ea" stroke="#888888" stroke-width="2" points="8,-8 8,-150 391,-150 391,-8 8,-8"/>
</g>
<g id="clust2" class="cluster">
<title>cluster_1</title>
<polygon fill="#e8e9ea" stroke="#888888" stroke-width="2" points="16,-16 16,-68 383,-68 383,-16 16,-16"/>
</g>
<!-- n0 -->
<g id="node1" class="node omg&#45;form&#45;package">
<title>n0</title>
<polygon fill="#e8e9ea" stroke="black" stroke-width="2" points="383,-142 245,-142 245,-106 383,-106 383,-142"/>
<text text-anchor="start" x="245" y="-122.5" font-family="Helvetica,sans-Serif" font-weight="bold" font-size="10.00">17b&#45;Sequence&#45;Modeling</text>
</g>
<!-- n1 -->
<g id="node3" class="node omg&#45;form&#45;package">
<title>n1</title>
<polygon fill="#e8e9ea" stroke="black" stroke-width="2" points="375,-60 269,-60 269,-24 375,-24 375,-60"/>
<text text-anchor="start" x="269" y="-40.5" font-family="Helvetica,sans-Serif" font-weight="bold" font-size="10.00">PayloadDefinitions</text>
</g>
<!-- n0&#45;&gt;n1 -->
<g id="edge1" class="edge">
<title>n0&#45;&gt;n1</title>
<path fill="none" stroke="#777777" stroke-dasharray="5,2" d="M315.74,-105.64C316.77,-95.3 318.11,-81.94 319.28,-70.22"/>
<polygon fill="#777777" stroke="#777777" points="322.78,-70.35 320.29,-60.05 315.82,-69.65 322.78,-70.35"/>
<text text-anchor="middle" x="350.5" y="-80.8" font-family="Helvetica,sans-Serif" font-size="9.00">&lt;&lt;import&gt;&gt;*</text>
</g>
<!-- n5 -->
<g id="node2" class="node omg&#45;form&#45;definition">
<title>n5</title>
<polygon fill="#e7e7e7" stroke="black" points="169.5,-142 66.5,-142 66.5,-106 169.5,-106 169.5,-142"/>
<text text-anchor="start" x="82" y="-129.6" font-family="Helvetica,sans-Serif" font-size="8.00">«occurrence def»</text>
<text text-anchor="start" x="69" y="-116" font-family="Helvetica,sans-Serif" font-weight="bold" font-size="10.00">PubSubSequence</text>
</g>
<!-- n2 -->
<g id="node4" class="node omg&#45;form&#45;definition">
<title>n2</title>
<polygon fill="#d4f0f4" stroke="black" points="244,-60 182,-60 182,-24 244,-24 244,-60"/>
<text text-anchor="start" x="190.5" y="-47.6" font-family="Helvetica,sans-Serif" font-size="8.00">«item def»</text>
<text text-anchor="start" x="184" y="-34" font-family="Helvetica,sans-Serif" font-weight="bold" font-size="10.00">Subscribe</text>
</g>
<!-- n3 -->
<g id="node5" class="node omg&#45;form&#45;definition">
<title>n3</title>
<polygon fill="#d4f0f4" stroke="black" points="157,-60 103,-60 103,-24 157,-24 157,-60"/>
<text text-anchor="start" x="108" y="-47.6" font-family="Helvetica,sans-Serif" font-size="8.00">«item def»</text>
<text text-anchor="start" x="109" y="-34" font-family="Helvetica,sans-Serif" font-weight="bold" font-size="10.00">Publish</text>
</g>
<!-- n4 -->
<g id="node6" class="node omg&#45;form&#45;definition">
<title>n4</title>
<polygon fill="#d4f0f4" stroke="black" points="78,-60 24,-60 24,-24 78,-24 78,-60"/>
<text text-anchor="start" x="29" y="-47.6" font-family="Helvetica,sans-Serif" font-size="8.00">«item def»</text>
<text text-anchor="start" x="30.5" y="-34" font-family="Helvetica,sans-Serif" font-weight="bold" font-size="10.00">Deliver</text>
</g>
</g>
</svg>
