<?xml version="1.0" encoding="UTF-8" standalone="no"?><svg xmlns="http://www.w3.org/2000/svg" xmlns:xlink="http://www.w3.org/1999/xlink" contentStyleType="text/css" height="620px" preserveAspectRatio="none" style="width:3131px;height:620px;background:#FFFFFF;" version="1.1" viewBox="0 0 3131 620" width="3131px" zoomAndPan="magnify"><defs><filter height="300%" id="f16m5y1ffxvgdr" width="300%" x="-1" y="-1"><feGaussianBlur result="blurOut" stdDeviation="2.0"/><feColorMatrix in="blurOut" result="blurOut2" type="matrix" values="0 0 0 0 0 0 0 0 0 0 0 0 0 0 0 0 0 0 .4 0"/><feOffset dx="4.0" dy="4.0" in="blurOut2" result="blurOut3"/><feBlend in="SourceGraphic" in2="blurOut3" mode="normal"/></filter></defs><g><!--MD5=[fbc87193dbaf4d95561dea2c320d4a47]
cluster E1--><g id="cluster_E1"><polygon fill="none" filter="url(#f16m5y1ffxvgdr)" points="16,6.602,370,6.602,377,31.6699,3114,31.6699,3114,613.322,16,613.322,16,6.602" style="stroke:#000000;stroke-width:1.5;"/><line style="stroke:#000000;stroke-width:1.5;" x1="16" x2="377" y1="31.6699" y2="31.6699"/><text fill="#000000" font-family="sans-serif" font-size="14" font-weight="bold" lengthAdjust="spacing" textLength="348" x="20" y="23.5679">13b-Safety and Security Features Element Group-2</text></g><!--MD5=[e4f7fae6ed58524ba242bb0b0d3be6b7]
cluster E2--><g id="cluster_E2"><polygon fill="none" filter="url(#f16m5y1ffxvgdr)" points="1360,126.322,1520,126.322,1527,151.3899,1710,151.3899,1710,280.322,1360,280.322,1360,126.322" style="stroke:#000000;stroke-width:1.5;"/><line style="stroke:#000000;stroke-width:1.5;" x1="1360" x2="1527" y1="151.3899" y2="151.3899"/><text fill="#000000" font-family="sans-serif" font-size="14" font-weight="bold" lengthAdjust="spacing" textLength="154" x="1364" y="143.2879">AnnotationDefinitions</text></g><!--MD5=[de5ec2e2e8f62f467e546659f5068c88]
cluster E5--><g id="cluster_E5"><polygon fill="none" filter="url(#f16m5y1ffxvgdr)" points="1750,141.822,1822,141.822,1829,166.8899,3074,166.8899,3074,573.322,1750,573.322,1750,141.822" style="stroke:#000000;stroke-width:1.5;"/><line style="stroke:#000000;stroke-width:1.5;" x1="1750" x2="1829" y1="166.8899" y2="166.8899"/><text fill="#000000" font-family="sans-serif" font-size="14" font-weight="bold" lengthAdjust="spacing" textLength="66" x="1754" y="158.7879">PartsTree</text></g><!--MD5=[7aa1c94561e55dd272896cdcfb9397aa]
cluster E19--><g id="cluster_E19"><polygon fill="none" filter="url(#f16m5y1ffxvgdr)" points="1068,154.322,1181,154.322,1188,179.3899,1320,179.3899,1320,370.182,1068,370.182,1068,154.322" style="stroke:#000000;stroke-width:1.5;"/><line style="stroke:#000000;stroke-width:1.5;" x1="1068" x2="1188" y1="179.3899" y2="179.3899"/><text fill="#000000" font-family="sans-serif" font-size="14" font-weight="bold" lengthAdjust="spacing" textLength="107" x="1072" y="171.2879">Safety Features</text></g><!--MD5=[fff9a9dd1f029f5adabe173397837fc6]
cluster E21--><g id="cluster_E21"><polygon fill="none" filter="url(#f16m5y1ffxvgdr)" points="764,154.322,890,154.322,897,179.3899,1028,179.3899,1028,370.182,764,370.182,764,154.322" style="stroke:#000000;stroke-width:1.5;"/><line style="stroke:#000000;stroke-width:1.5;" x1="764" x2="897" y1="179.3899" y2="179.3899"/><text fill="#000000" font-family="sans-serif" font-size="14" font-weight="bold" lengthAdjust="spacing" textLength="120" x="768" y="171.2879">Security Features</text></g><!--MD5=[2b498f8700fd69074bf9bb3cdfb8940b]
cluster E23--><g id="cluster_E23"><polygon fill="none" filter="url(#f16m5y1ffxvgdr)" points="400,154.322,588,154.322,595,179.3899,724,179.3899,724,370.182,400,370.182,400,154.322" style="stroke:#000000;stroke-width:1.5;"/><line style="stroke:#000000;stroke-width:1.5;" x1="400" x2="595" y1="179.3899" y2="179.3899"/><text fill="#000000" font-family="sans-serif" font-size="14" font-weight="bold" lengthAdjust="spacing" textLength="182" x="404" y="171.2879">Safety &amp; Security Features</text></g><!--MD5=[3360037429781029b6dfaf7a43bf1f7b]
cluster E25--><g id="cluster_E25"><polygon fill="none" filter="url(#f16m5y1ffxvgdr)" points="56,145.822,249,145.822,256,170.8899,360,170.8899,360,370.182,56,370.182,56,145.822" style="stroke:#000000;stroke-width:1.5;"/><line style="stroke:#000000;stroke-width:1.5;" x1="56" x2="256" y1="170.8899" y2="170.8899"/><text fill="#000000" font-family="sans-serif" font-size="14" font-weight="bold" lengthAdjust="spacing" textLength="187" x="60" y="162.7879">Mandatory Saftey Features</text></g><!--MD5=[09b614a08d8cba4a07c9adeb5e0fee81]
class E3--><g id="elem_E3"><rect fill="#FFFACD" filter="url(#f16m5y1ffxvgdr)" height="84.1071" id="E3" style="stroke:#181818;stroke-width:0.5;" width="158" x="1528" y="172.322"/><text fill="#000000" font-family="sans-serif" font-size="12" font-style="italic" lengthAdjust="spacing" textLength="88" x="1563" y="190.1501">«metadata  def»</text><text fill="#000000" font-family="sans-serif" font-size="14" lengthAdjust="spacing" textLength="41" x="1586.5" y="208.632">Safety</text><line style="stroke:#181818;stroke-width:0.5;" x1="1529" x2="1685" y1="217.734" y2="217.734"/><text fill="#000000" font-family="sans-serif" font-size="14" lengthAdjust="spacing" textLength="146" x="1534" y="248.3271">isMandatory: Boolean</text><text fill="#000000" font-family="sans-serif" font-size="14" font-style="italic" lengthAdjust="spacing" textLength="62" x="1576" y="230.666">attributes</text></g><!--MD5=[ebbe1d658d1005bcc118a6aa81145e00]
class E4--><g id="elem_E4"><rect fill="#FFFACD" filter="url(#f16m5y1ffxvgdr)" height="53.412" id="E4" style="stroke:#181818;stroke-width:0.5;" width="90" x="1403" y="187.822"/><text fill="#000000" font-family="sans-serif" font-size="12" font-style="italic" lengthAdjust="spacing" textLength="88" x="1404" y="205.6501">«metadata  def»</text><text fill="#000000" font-family="sans-serif" font-size="14" lengthAdjust="spacing" textLength="54" x="1421" y="224.132">Security</text><line style="stroke:#181818;stroke-width:0.5;" x1="1404" x2="1492" y1="233.234" y2="233.234"/></g><!--MD5=[60a26617385b1d2d0262a64233df1f8d]
class E6--><g id="elem_E6"><rect fill="#FFFACD" filter="url(#f16m5y1ffxvgdr)" height="53.412" id="E6" rx="10" ry="10" style="stroke:#181818;stroke-width:0.5;" width="61" x="2518.5" y="187.822"/><text fill="#000000" font-family="sans-serif" font-size="12" font-style="italic" lengthAdjust="spacing" textLength="35" x="2531.5" y="205.6501">«part»</text><text fill="#000000" font-family="sans-serif" font-size="14" lengthAdjust="spacing" textLength="47" x="2521.5" y="224.132">vehicle</text><line style="stroke:#181818;stroke-width:0.5;" x1="2519.5" x2="2578.5" y1="233.234" y2="233.234"/></g><!--MD5=[2156ba9850f5573cc1fc38a6a4b2f02b]
class E7--><g id="elem_E7"><rect fill="#FFFACD" filter="url(#f16m5y1ffxvgdr)" height="53.412" id="E7" rx="10" ry="10" style="stroke:#181818;stroke-width:0.5;" width="64" x="2082" y="335.322"/><text fill="#000000" font-family="sans-serif" font-size="12" font-style="italic" lengthAdjust="spacing" textLength="35" x="2096.5" y="353.1501">«part»</text><text fill="#000000" font-family="sans-serif" font-size="14" lengthAdjust="spacing" textLength="50" x="2085" y="371.632">interior</text><line style="stroke:#181818;stroke-width:0.5;" x1="2083" x2="2145" y1="380.734" y2="380.734"/></g><!--MD5=[b9389687b975829384b498ac4b7476b2]
class E8--><g id="elem_E8"><rect fill="#FFFACD" filter="url(#f16m5y1ffxvgdr)" height="53.412" id="E8" rx="10" ry="10" style="stroke:#181818;stroke-width:0.5;" width="64" x="1782" y="472.822"/><text fill="#000000" font-family="sans-serif" font-size="12" font-style="italic" lengthAdjust="spacing" textLength="62" x="1783" y="490.6501">«#Security»</text><text fill="#000000" font-family="sans-serif" font-size="14" lengthAdjust="spacing" textLength="39" x="1790.5" y="509.132">alarm</text><line style="stroke:#181818;stroke-width:0.5;" x1="1783" x2="1845" y1="518.234" y2="518.234"/></g><!--MD5=[fd4143e9d270a159db93a4ea2a975926]
class E9--><g id="elem_E9"><rect fill="#FFFACD" filter="url(#f16m5y1ffxvgdr)" height="100.404" id="E9" rx="10" ry="10" style="stroke:#181818;stroke-width:0.5;" width="160" x="1881" y="449.322"/><text fill="#000000" font-family="sans-serif" font-size="12" font-style="italic" lengthAdjust="spacing" textLength="35" x="1943.5" y="467.1501">«part»</text><text fill="#000000" font-family="sans-serif" font-size="14" lengthAdjust="spacing" textLength="54" x="1930" y="485.632">seatBelt</text><line style="stroke:#181818;stroke-width:0.5;" x1="1882" x2="2040" y1="494.734" y2="494.734"/><text fill="#000000" font-family="monospace" font-size="14" lengthAdjust="spacing" textLength="48" x="1887" y="523.3563">Safety</text><text fill="#000000" font-family="monospace" font-size="14" lengthAdjust="spacing" textLength="16" x="1887" y="542.4242">  </text><text fill="#000000" font-family="sans-serif" font-size="14" lengthAdjust="spacing" textLength="132" x="1903" y="541.624">isMandatory =  true</text><text fill="#000000" font-family="sans-serif" font-size="14" font-style="italic" lengthAdjust="spacing" textLength="61" x="1930.5" y="507.666">metadata</text></g><!--MD5=[96f4274e9e20536e775497830990834d]
class E10--><g id="elem_E10"><rect fill="#FFFACD" filter="url(#f16m5y1ffxvgdr)" height="53.412" id="E10" rx="10" ry="10" style="stroke:#181818;stroke-width:0.5;" width="76" x="2076" y="472.822"/><text fill="#000000" font-family="sans-serif" font-size="12" font-style="italic" lengthAdjust="spacing" textLength="35" x="2096.5" y="490.6501">«part»</text><text fill="#000000" font-family="sans-serif" font-size="14" lengthAdjust="spacing" textLength="62" x="2079" y="509.132">frontSeat</text><line style="stroke:#181818;stroke-width:0.5;" x1="2077" x2="2151" y1="518.234" y2="518.234"/></g><!--MD5=[1dd1bfd58a279cf63c5f349dbc8fc6a1]
class E11--><g id="elem_E11"><rect fill="#FFFACD" filter="url(#f16m5y1ffxvgdr)" height="100.404" id="E11" rx="10" ry="10" style="stroke:#181818;stroke-width:0.5;" width="164" x="2187" y="449.322"/><text fill="#000000" font-family="sans-serif" font-size="12" font-style="italic" lengthAdjust="spacing" textLength="35" x="2251.5" y="467.1501">«part»</text><text fill="#000000" font-family="sans-serif" font-size="14" lengthAdjust="spacing" textLength="85" x="2222.5" y="485.632">driverAirBag</text><line style="stroke:#181818;stroke-width:0.5;" x1="2188" x2="2350" y1="494.734" y2="494.734"/><text fill="#000000" font-family="monospace" font-size="14" lengthAdjust="spacing" textLength="48" x="2193" y="523.3563">Safety</text><text fill="#000000" font-family="monospace" font-size="14" lengthAdjust="spacing" textLength="16" x="2193" y="542.4242">  </text><text fill="#000000" font-family="sans-serif" font-size="14" lengthAdjust="spacing" textLength="136" x="2209" y="541.624">isMandatory =  false</text><text fill="#000000" font-family="sans-serif" font-size="14" font-style="italic" lengthAdjust="spacing" textLength="61" x="2238.5" y="507.666">metadata</text></g><!--MD5=[49a0ec8f00dab7302a31f22d0f0fe584]
class E12--><g id="elem_E12"><rect fill="#FFFACD" filter="url(#f16m5y1ffxvgdr)" height="53.412" id="E12" rx="10" ry="10" style="stroke:#181818;stroke-width:0.5;" width="77" x="2510.5" y="335.322"/><text fill="#000000" font-family="sans-serif" font-size="12" font-style="italic" lengthAdjust="spacing" textLength="35" x="2531.5" y="353.1501">«part»</text><text fill="#000000" font-family="sans-serif" font-size="14" lengthAdjust="spacing" textLength="63" x="2513.5" y="371.632">bodyAssy</text><line style="stroke:#181818;stroke-width:0.5;" x1="2511.5" x2="2586.5" y1="380.734" y2="380.734"/></g><!--MD5=[ee3c913d1a06f366521f9ef512b67efe]
class E13--><g id="elem_E13"><rect fill="#FFFACD" filter="url(#f16m5y1ffxvgdr)" height="53.412" id="E13" rx="10" ry="10" style="stroke:#181818;stroke-width:0.5;" width="47" x="2386.5" y="472.822"/><text fill="#000000" font-family="sans-serif" font-size="12" font-style="italic" lengthAdjust="spacing" textLength="35" x="2392.5" y="490.6501">«part»</text><text fill="#000000" font-family="sans-serif" font-size="14" lengthAdjust="spacing" textLength="33" x="2389.5" y="509.132">body</text><line style="stroke:#181818;stroke-width:0.5;" x1="2387.5" x2="2432.5" y1="518.234" y2="518.234"/></g><!--MD5=[bee11217b2f71d958a27249dc326068c]
class E14--><g id="elem_E14"><rect fill="#FFFACD" filter="url(#f16m5y1ffxvgdr)" height="100.404" id="E14" rx="10" ry="10" style="stroke:#181818;stroke-width:0.5;" width="160" x="2469" y="449.322"/><text fill="#000000" font-family="sans-serif" font-size="12" font-style="italic" lengthAdjust="spacing" textLength="35" x="2531.5" y="467.1501">«part»</text><text fill="#000000" font-family="sans-serif" font-size="14" lengthAdjust="spacing" textLength="54" x="2518" y="485.632">bumper</text><line style="stroke:#181818;stroke-width:0.5;" x1="2470" x2="2628" y1="494.734" y2="494.734"/><text fill="#000000" font-family="monospace" font-size="14" lengthAdjust="spacing" textLength="48" x="2475" y="523.3563">Safety</text><text fill="#000000" font-family="monospace" font-size="14" lengthAdjust="spacing" textLength="16" x="2475" y="542.4242">  </text><text fill="#000000" font-family="sans-serif" font-size="14" lengthAdjust="spacing" textLength="132" x="2491" y="541.624">isMandatory =  true</text><text fill="#000000" font-family="sans-serif" font-size="14" font-style="italic" lengthAdjust="spacing" textLength="61" x="2518.5" y="507.666">metadata</text></g><!--MD5=[0c48fb7552dae8cbbef69381101a84c8]
class E15--><g id="elem_E15"><rect fill="#FFFACD" filter="url(#f16m5y1ffxvgdr)" height="53.412" id="E15" rx="10" ry="10" style="stroke:#181818;stroke-width:0.5;" width="97" x="2664.5" y="472.822"/><text fill="#000000" font-family="sans-serif" font-size="12" font-style="italic" lengthAdjust="spacing" textLength="62" x="2682" y="490.6501">«#Security»</text><text fill="#000000" font-family="sans-serif" font-size="14" lengthAdjust="spacing" textLength="83" x="2667.5" y="509.132">keylessEntry</text><line style="stroke:#181818;stroke-width:0.5;" x1="2665.5" x2="2760.5" y1="518.234" y2="518.234"/></g><!--MD5=[35f0587eaee8d5bb9a02e25b63afc23b]
class E16--><g id="elem_E16"><rect fill="#FFFACD" filter="url(#f16m5y1ffxvgdr)" height="53.412" id="E16" rx="10" ry="10" style="stroke:#181818;stroke-width:0.5;" width="84" x="2782" y="335.322"/><text fill="#000000" font-family="sans-serif" font-size="12" font-style="italic" lengthAdjust="spacing" textLength="35" x="2806.5" y="353.1501">«part»</text><text fill="#000000" font-family="sans-serif" font-size="14" lengthAdjust="spacing" textLength="70" x="2785" y="371.632">wheelAssy</text><line style="stroke:#181818;stroke-width:0.5;" x1="2783" x2="2865" y1="380.734" y2="380.734"/></g><!--MD5=[60e55a4a9b2f0dc0a36787c5a2095786]
class E17--><g id="elem_E17"><rect fill="#FFFACD" filter="url(#f16m5y1ffxvgdr)" height="53.412" id="E17" rx="10" ry="10" style="stroke:#181818;stroke-width:0.5;" width="54" x="2797" y="472.822"/><text fill="#000000" font-family="sans-serif" font-size="12" font-style="italic" lengthAdjust="spacing" textLength="35" x="2806.5" y="490.6501">«part»</text><text fill="#000000" font-family="sans-serif" font-size="14" lengthAdjust="spacing" textLength="40" x="2800" y="509.132">wheel</text><line style="stroke:#181818;stroke-width:0.5;" x1="2798" x2="2850" y1="518.234" y2="518.234"/></g><!--MD5=[e3af68e2095dcd46cf4beab32f25c64b]
class E18--><g id="elem_E18"><rect fill="#FFFACD" filter="url(#f16m5y1ffxvgdr)" height="100.404" id="E18" rx="10" ry="10" style="stroke:#181818;stroke-width:0.5;" width="164" x="2886" y="449.322"/><text fill="#000000" font-family="sans-serif" font-size="12" font-style="italic" lengthAdjust="spacing" textLength="35" x="2950.5" y="467.1501">«part»</text><text fill="#000000" font-family="sans-serif" font-size="14" lengthAdjust="spacing" textLength="97" x="2915.5" y="485.632">antilockBrakes</text><line style="stroke:#181818;stroke-width:0.5;" x1="2887" x2="3049" y1="494.734" y2="494.734"/><text fill="#000000" font-family="monospace" font-size="14" lengthAdjust="spacing" textLength="48" x="2892" y="523.3563">Safety</text><text fill="#000000" font-family="monospace" font-size="14" lengthAdjust="spacing" textLength="16" x="2892" y="542.4242">  </text><text fill="#000000" font-family="sans-serif" font-size="14" lengthAdjust="spacing" textLength="136" x="2908" y="541.624">isMandatory =  false</text><text fill="#000000" font-family="sans-serif" font-size="14" font-style="italic" lengthAdjust="spacing" textLength="61" x="2937.5" y="507.666">metadata</text></g><g id="elem_E20"><path d="M1092,200.322 L1092,228.028 L1296,228.028 L1296,210.322 L1286,200.322 L1092,200.322 " fill="#FEFFDD" filter="url(#f16m5y1ffxvgdr)" style="stroke:#181818;stroke-width:0.5;"/><path d="M1286,200.322 L1286,210.322 L1296,210.322 L1286,200.322 " fill="#FEFFDD" style="stroke:#181818;stroke-width:1.0;"/><text fill="#000000" font-family="sans-serif" font-size="13" lengthAdjust="spacing" textLength="183" x="1098" y="219.219">Parts that contribute to safety.</text></g><g id="elem_E22"><path d="M788.5,200.322 L788.5,228.028 L1003.5,228.028 L1003.5,210.322 L993.5,200.322 L788.5,200.322 " fill="#FEFFDD" filter="url(#f16m5y1ffxvgdr)" style="stroke:#181818;stroke-width:0.5;"/><path d="M993.5,200.322 L993.5,210.322 L1003.5,210.322 L993.5,200.322 " fill="#FEFFDD" style="stroke:#181818;stroke-width:1.0;"/><text fill="#000000" font-family="sans-serif" font-size="13" lengthAdjust="spacing" textLength="194" x="794.5" y="219.219">Parts that contribute to security.</text></g><g id="elem_E24"><path d="M424.5,200.322 L424.5,228.028 L699.5,228.028 L699.5,210.322 L689.5,200.322 L424.5,200.322 " fill="#FEFFDD" filter="url(#f16m5y1ffxvgdr)" style="stroke:#181818;stroke-width:0.5;"/><path d="M689.5,200.322 L689.5,210.322 L699.5,210.322 L689.5,200.322 " fill="#FEFFDD" style="stroke:#181818;stroke-width:1.0;"/><text fill="#000000" font-family="sans-serif" font-size="13" lengthAdjust="spacing" textLength="254" x="430.5" y="219.219">Parts that contribute to safety OR security.</text></g><g id="elem_E26"><path d="M80,191.822 L80,237.234 L336,237.234 L336,201.822 L326,191.822 L80,191.822 " fill="#FEFFDD" filter="url(#f16m5y1ffxvgdr)" style="stroke:#181818;stroke-width:0.5;"/><path d="M326,191.822 L326,201.822 L336,201.822 L326,191.822 " fill="#FEFFDD" style="stroke:#181818;stroke-width:1.0;"/><text fill="#000000" font-family="sans-serif" font-size="13" lengthAdjust="spacing" textLength="232" x="86" y="210.719">Parts that contribute to safety AND are</text><text fill="#000000" font-family="sans-serif" font-size="13" lengthAdjust="spacing" textLength="70" x="86" y="228.425">mandatory.</text></g><!--MD5=[1f1cd8e6dd4c1b2ca2aaccc9b9bcea6e]
link E1 to E2--><g id="link_E1_E2"><path d="M1561.91,37.322 C1558.21,37.172 1439.31,33.102 1387,94.322 C1382.7188,99.332 1379.2034,104.9107 1376.3304,110.8424 C1374.8939,113.8083 1373.6179,116.8623 1372.4871,119.9777 C1371.9216,121.5353 1371.3925,123.1083 1370.8977,124.6932 C1370.774,125.0894 1370.6524,125.4864 1370.533,125.8841 " fill="none" id="E1-to-E2" style="stroke:#181818;stroke-width:1.0;stroke-dasharray:7.0,7.0;"/><polygon fill="#181818" points="1370.533,125.8841,1376.9528,118.4151,1371.9712,121.0954,1369.2909,116.1139,1370.533,125.8841" style="stroke:#181818;stroke-width:1.0;"/><text fill="#000000" font-family="sans-serif" font-size="13" lengthAdjust="spacing" textLength="62" x="1418" y="82.219">«import»*</text></g><!--MD5=[bd51cba4aecbc6557d5973743b474666]
link E1 to E5--><g id="link_E1_E5"><path d="M1562.07,37.332 C1564.84,37.672 1654.01,48.822 1702,94.322 C1722.875,114.117 1736.7675,143.2545 1745.4937,167.742 C1746.5845,170.8029 1747.5946,173.7912 1748.5275,176.6795 C1748.9939,178.1236 1749.4411,179.5428 1749.8694,180.9335 " fill="none" id="E1-to-E5" style="stroke:#181818;stroke-width:1.0;stroke-dasharray:7.0,7.0;"/><polygon fill="#181818" points="1749.8694,180.9335,1751.0433,171.1549,1748.3977,176.155,1743.3976,173.5095,1749.8694,180.9335" style="stroke:#181818;stroke-width:1.0;"/><text fill="#000000" font-family="sans-serif" font-size="13" lengthAdjust="spacing" textLength="62" x="1690" y="82.219">«import»*</text></g><!--MD5=[3f50a3473f1dfb74d3f76443e03635af]
reverse link E6 to E7--><g id="link_E6_E7"><path d="M2541.54,253.472 C2536.57,269.022 2528.39,285.792 2515,296.322 C2457.63,341.442 2230.86,355.762 2146.14,359.592 " fill="none" id="E6-backto-E7" style="stroke:#181818;stroke-width:1.0;"/><polygon fill="#181818" points="2544.99,240.852,2539.5495,245.585,2541.8259,252.4273,2547.2664,247.6944,2544.99,240.852" style="stroke:#181818;stroke-width:1.0;"/></g><!--MD5=[dc164f5e8a733ab456ef1add180e9e34]
reverse link E7 to E8--><g id="link_E7_E8"><path d="M2068.84,372.092 C2016.65,384.182 1929.56,408.742 1864,449.322 C1853.77,455.652 1843.97,464.412 1835.81,472.782 " fill="none" id="E7-backto-E8" style="stroke:#181818;stroke-width:1.0;"/><polygon fill="#181818" points="2081.63,369.212,2074.8977,366.6281,2069.9232,371.8486,2076.6555,374.4326,2081.63,369.212" style="stroke:#181818;stroke-width:1.0;"/></g><!--MD5=[e4a10ef82d0e328e31cac39a31e58dda]
reverse link E7 to E9--><g id="link_E7_E9"><path d="M2074.85,397.492 C2057.08,413.232 2035.74,432.132 2016.36,449.292 " fill="none" id="E7-backto-E9" style="stroke:#181818;stroke-width:1.0;"/><polygon fill="#181818" points="2084.86,388.632,2077.717,389.6207,2075.8824,396.5945,2083.0254,395.6058,2084.86,388.632" style="stroke:#181818;stroke-width:1.0;"/><text fill="#000000" font-family="sans-serif" font-size="13" lengthAdjust="spacing" textLength="7" x="2016.9769" y="437.6146">2</text></g><!--MD5=[922cdebd694c5e143c813d690fab87df]
reverse link E7 to E10--><g id="link_E7_E10"><path d="M2114,401.652 C2114,424.432 2114,452.582 2114,472.612 " fill="none" id="E7-backto-E10" style="stroke:#181818;stroke-width:1.0;"/><polygon fill="#181818" points="2114,388.632,2110,394.632,2114,400.632,2118,394.632,2114,388.632" style="stroke:#181818;stroke-width:1.0;"/><text fill="#000000" font-family="sans-serif" font-size="13" lengthAdjust="spacing" textLength="7" x="2106.1469" y="460.9624">2</text></g><!--MD5=[2ca899261e9da116dc90951b99d19438]
reverse link E7 to E11--><g id="link_E7_E11"><path d="M2153.41,397.272 C2171.47,413.062 2193.2,432.052 2212.92,449.292 " fill="none" id="E7-backto-E11" style="stroke:#181818;stroke-width:1.0;"/><polygon fill="#181818" points="2143.52,388.632,2145.4036,395.5927,2152.5534,396.5312,2150.6698,389.5705,2143.52,388.632" style="stroke:#181818;stroke-width:1.0;"/></g><!--MD5=[121fe0e397de22fdbb429873968f84d2]
reverse link E6 to E12--><g id="link_E6_E12"><path d="M2549,254.342 C2549,279.882 2549,312.542 2549,334.912 " fill="none" id="E6-backto-E12" style="stroke:#181818;stroke-width:1.0;"/><polygon fill="#181818" points="2549,241.002,2545,247.002,2549,253.002,2553,247.002,2549,241.002" style="stroke:#181818;stroke-width:1.0;"/></g><!--MD5=[062ed86c389d1a88f61c6380d0491e17]
reverse link E12 to E13--><g id="link_E12_E13"><path d="M2508.26,397.002 C2490.48,412.462 2469.7,431.272 2452,449.322 C2444.78,456.682 2437.33,465.082 2430.74,472.822 " fill="none" id="E12-backto-E13" style="stroke:#181818;stroke-width:1.0;"/><polygon fill="#181818" points="2518.33,388.322,2511.1732,389.2051,2509.2357,396.151,2516.3925,395.2679,2518.33,388.322" style="stroke:#181818;stroke-width:1.0;"/></g><!--MD5=[84572f992dc73728fd12bbb2da660424]
reverse link E12 to E14--><g id="link_E12_E14"><path d="M2549,401.982 C2549,416.752 2549,433.742 2549,449.292 " fill="none" id="E12-backto-E14" style="stroke:#181818;stroke-width:1.0;"/><polygon fill="#181818" points="2549,388.632,2545,394.632,2549,400.632,2553,394.632,2549,388.632" style="stroke:#181818;stroke-width:1.0;"/></g><!--MD5=[1484bc0e0b706d4be8097a7728d0629d]
reverse link E12 to E15--><g id="link_E12_E15"><path d="M2590.28,396.932 C2618.72,420.432 2655.93,451.162 2681.88,472.612 " fill="none" id="E12-backto-E15" style="stroke:#181818;stroke-width:1.0;"/><polygon fill="#181818" points="2580.23,388.632,2582.3088,395.537,2589.4821,396.2739,2587.4034,389.3689,2580.23,388.632" style="stroke:#181818;stroke-width:1.0;"/></g><!--MD5=[64cfee7c831388a6af3e1a203ac09262]
reverse link E6 to E16--><g id="link_E6_E16"><path d="M2591.48,237.802 C2643.24,265.182 2730.17,311.172 2781.8,338.492 " fill="none" id="E6-backto-E16" style="stroke:#181818;stroke-width:1.0;"/><polygon fill="#181818" points="2579.75,231.592,2583.1852,237.9323,2590.359,237.2,2586.9238,230.8596,2579.75,231.592" style="stroke:#181818;stroke-width:1.0;"/></g><!--MD5=[83b671efae201694a20ab4d5a8adffa0]
reverse link E16 to E17--><g id="link_E16_E17"><path d="M2824,401.652 C2824,424.432 2824,452.582 2824,472.612 " fill="none" id="E16-backto-E17" style="stroke:#181818;stroke-width:1.0;"/><polygon fill="#181818" points="2824,388.632,2820,394.632,2824,400.632,2828,394.632,2824,388.632" style="stroke:#181818;stroke-width:1.0;"/><text fill="#000000" font-family="sans-serif" font-size="13" lengthAdjust="spacing" textLength="7" x="2816.1469" y="460.9624">2</text></g><!--MD5=[38b5474354afcdf850b9d90f1c10074b]
reverse link E16 to E18--><g id="link_E16_E18"><path d="M2861.32,397.932 C2877.95,413.592 2897.83,432.292 2915.9,449.292 " fill="none" id="E16-backto-E18" style="stroke:#181818;stroke-width:1.0;"/><polygon fill="#181818" points="2851.42,388.632,2853.0477,395.657,2860.1584,396.8564,2858.5307,389.8314,2851.42,388.632" style="stroke:#181818;stroke-width:1.0;"/><text fill="#000000" font-family="sans-serif" font-size="13" lengthAdjust="spacing" textLength="7" x="2900.7338" y="437.6146">2</text></g><!--MD5=[fe258f683a5d5dadf9b4f523da91ed64]
link E20 to E19--><g id="link_E20_E19"><path d="M1194,228.492 C1194,263.752 1194,357.822 1194,360.752 " fill="none" id="E20-E19" style="stroke:#181818;stroke-width:1.0;stroke-dasharray:7.0,7.0;"/></g><!--MD5=[57619278295c5fac69d125dbf0135606]
link E22 to E21--><g id="link_E22_E21"><path d="M896,228.492 C896,263.752 896,357.822 896,360.752 " fill="none" id="E22-E21" style="stroke:#181818;stroke-width:1.0;stroke-dasharray:7.0,7.0;"/></g><!--MD5=[0e74baadc29c792c569ef7e819845273]
link E24 to E23--><g id="link_E24_E23"><path d="M562,228.492 C562,263.752 562,357.822 562,360.752 " fill="none" id="E24-E23" style="stroke:#181818;stroke-width:1.0;stroke-dasharray:7.0,7.0;"/></g><!--MD5=[f2a0390a1569beab8a139ec6d70a46a9]
link E26 to E25--><g id="link_E26_E25"><path d="M208,237.102 C208,277.062 208,358.232 208,360.762 " fill="none" id="E26-E25" style="stroke:#181818;stroke-width:1.0;stroke-dasharray:7.0,7.0;"/></g><!--MD5=[4a39d0503ede6e1fff10dd350319f3c2]
@startuml
skin sysmlc
skinparam wrapWidth 300
hide circle

package "13b-Safety and Security Features Element Group-2" as E1   {
package "AnnotationDefinitions" as E2   {
comp def "Safety" as E3  <<(T,blue) metadata  def>> {
##//attributes//##
isMandatory: Boolean
}
comp def "Security" as E4  <<(T,blue) metadata  def>> {
}
}
package "PartsTree" as E5   {
comp usage "vehicle  " as E6  <<(T,blue) part>> {
}
comp usage "interior  " as E7  <<(T,blue) part>> {
}
comp usage "alarm  " as E8 <<#Security>>{
}
comp usage "seatBelt  " as E9  <<(T,blue) part>> {
##//metadata//##
""Safety""
""  ""isMandatory =  true
}
comp usage "frontSeat  " as E10  <<(T,blue) part>> {
}
comp usage "driverAirBag  " as E11  <<(T,blue) part>> {
##//metadata//##
""Safety""
""  ""isMandatory =  false
}
comp usage "bodyAssy  " as E12  <<(T,blue) part>> {
}
comp usage "body  " as E13  <<(T,blue) part>> {
}
comp usage "bumper  " as E14  <<(T,blue) part>> {
##//metadata//##
""Safety""
""  ""isMandatory =  true
}
comp usage "keylessEntry  " as E15 <<#Security>>{
}
comp usage "wheelAssy  " as E16  <<(T,blue) part>> {
}
comp usage "wheel  " as E17  <<(T,blue) part>> {
}
comp usage "antilockBrakes  " as E18  <<(T,blue) part>> {
##//metadata//##
""Safety""
""  ""isMandatory =  false
}
}
package "Safety Features" as E19   {
note as E20
Parts that contribute to safety.
end note 
}
package "Security Features" as E21   {
note as E22
Parts that contribute to security.
end note 
}
package "Safety & Security Features" as E23   {
note as E24
Parts that contribute to safety OR security.
end note 
}
package "Mandatory Saftey Features" as E25   {
note as E26
Parts that contribute to safety AND are mandatory.
end note 
}
}
E1 ..> E2 : <<import>>*
E1 ..> E5 : <<import>>*
E6 *- - E7 
E7 *- - E8 
E7 *- - "2"E9 
E7 *- - "2"E10 
E7 *- - E11 
E6 *- - E12 
E12 *- - E13 
E12 *- - E14 
E12 *- - E15 
E6 *- - E16 
E16 *- - "2"E17 
E16 *- - "2"E18 
E20 .. E19 
E22 .. E21 
E24 .. E23 
E26 .. E25 
@enduml

PlantUML version 1.2022.7(Mon Aug 22 13:01:30 EDT 2022)
(EPL source distribution)
Java Runtime: OpenJDK Runtime Environment
JVM: OpenJDK 64-Bit Server VM
Default Encoding: UTF-8
Language: en
Country: US
--></g></svg>