<?xml version="1.0" encoding="UTF-8" standalone="no"?><svg xmlns="http://www.w3.org/2000/svg" xmlns:xlink="http://www.w3.org/1999/xlink" contentStyleType="text/css" height="199px" preserveAspectRatio="none" style="width:168px;height:199px;background:#FFFFFF;" version="1.1" viewBox="0 0 168 199" width="168px" zoomAndPan="magnify"><defs><filter height="300%" id="f1v2lz954qd368" width="300%" x="-1" y="-1"><feGaussianBlur result="blurOut" stdDeviation="2.0"/><feColorMatrix in="blurOut" result="blurOut2" type="matrix" values="0 0 0 0 0 0 0 0 0 0 0 0 0 0 0 0 0 0 .4 0"/><feOffset dx="4.0" dy="4.0" in="blurOut2" result="blurOut3"/><feBlend in="SourceGraphic" in2="blurOut3" mode="normal"/></filter></defs><g><g id="E2"><rect fill="#FFFACD" filter="url(#f1v2lz954qd368)" height="50" style="stroke:#181818;stroke-width:0.5;" width="50" x="7" y="7"/><line style="stroke:#181818;stroke-width:0.5;" x1="7" x2="57" y1="36.0679" y2="36.0679"/><text fill="#000000" font-family="sans-serif" font-size="14" lengthAdjust="spacing" textLength="16" x="24" y="26.9659">E2</text></g><g id="E3"><rect fill="#FFFACD" filter="url(#f1v2lz954qd368)" height="50" style="stroke:#181818;stroke-width:0.5;" width="50" x="7" y="65"/><line style="stroke:#181818;stroke-width:0.5;" x1="7" x2="57" y1="94.0679" y2="94.0679"/><text fill="#000000" font-family="sans-serif" font-size="14" lengthAdjust="spacing" textLength="16" x="24" y="84.9659">E3</text></g><g id="E4"><rect fill="#FFFACD" filter="url(#f1v2lz954qd368)" height="50" style="stroke:#181818;stroke-width:0.5;" width="50" x="7" y="123"/><line style="stroke:#181818;stroke-width:0.5;" x1="7" x2="57" y1="152.0679" y2="152.0679"/><text fill="#000000" font-family="sans-serif" font-size="14" lengthAdjust="spacing" textLength="16" x="24" y="142.9659">E4</text></g><g id="E5"><rect fill="#FFFACD" filter="url(#f1v2lz954qd368)" height="50" style="stroke:#181818;stroke-width:0.5;" width="50" x="92" y="7"/><line style="stroke:#181818;stroke-width:0.5;" x1="92" x2="142" y1="36.0679" y2="36.0679"/><text fill="#000000" font-family="sans-serif" font-size="14" lengthAdjust="spacing" textLength="16" x="109" y="26.9659">E5</text></g><g id="E6"><rect fill="#FFFACD" filter="url(#f1v2lz954qd368)" height="50" style="stroke:#181818;stroke-width:0.5;" width="50" x="92" y="65"/><line style="stroke:#181818;stroke-width:0.5;" x1="92" x2="142" y1="94.0679" y2="94.0679"/><text fill="#000000" font-family="sans-serif" font-size="14" lengthAdjust="spacing" textLength="16" x="109" y="84.9659">E6</text></g><!--MD5=[2720a5a1f2c3fca2055b230370638851]
link E2 to E3--><g id="link_E2_E3"><path d="M32,57.07 C32,57.89 32,58.71 32,59.53 " fill="none" id="E2-to-E3" style="stroke:#181818;stroke-width:1.0;stroke-dasharray:7.0,7.0;"/><polygon fill="#181818" points="32,64.95,36,55.95,32,59.95,28,55.95,32,64.95" style="stroke:#181818;stroke-width:1.0;"/></g><!--MD5=[af87c684e3b0d8be13c1a698a818ef1e]
link E3 to E4--><g id="link_E3_E4"><path d="M32,115.07 C32,115.89 32,116.71 32,117.53 " fill="none" id="E3-to-E4" style="stroke:#181818;stroke-width:1.0;stroke-dasharray:7.0,7.0;"/><polygon fill="#181818" points="32,122.95,36,113.95,32,117.95,28,113.95,32,122.95" style="stroke:#181818;stroke-width:1.0;"/></g><!--MD5=[9120cf2e5df3bff93db8f754bbbc09b4]
link E5 to E6--><g id="link_E5_E6"><path d="M117,57.07 C117,57.89 117,58.71 117,59.53 " fill="none" id="E5-to-E6" style="stroke:#181818;stroke-width:1.0;stroke-dasharray:7.0,7.0;"/><polygon fill="#181818" points="117,64.95,121,55.95,117,59.95,113,55.95,117,64.95" style="stroke:#181818;stroke-width:1.0;"/></g><!--MD5=[33679c988d047a6f3564fffede4d192b]
@startuml
skin sysmlc
skinparam wrapWidth 300
hide circle
skinparam ranksep 8

E2 ..> E3 
E3 ..> E4 
E5 ..> E6 
@enduml

PlantUML version 1.2022.7(Mon Aug 22 13:01:30 EDT 2022)
(EPL source distribution)
Java Runtime: OpenJDK Runtime Environment
JVM: OpenJDK 64-Bit Server VM
Default Encoding: UTF-8
Language: en
Country: US
--></g></svg>