<?xml version="1.0" encoding="UTF-8" standalone="no"?><svg xmlns="http://www.w3.org/2000/svg" xmlns:xlink="http://www.w3.org/1999/xlink" contentStyleType="text/css" height="1614px" preserveAspectRatio="none" style="width:1411px;height:1614px;background:#FFFFFF;" version="1.1" viewBox="0 0 1411 1614" width="1411px" zoomAndPan="magnify"><defs><filter height="300%" id="f1gh9hkmg8awc4" width="300%" x="-1" y="-1"><feGaussianBlur result="blurOut" stdDeviation="2.0"/><feColorMatrix in="blurOut" result="blurOut2" type="matrix" values="0 0 0 0 0 0 0 0 0 0 0 0 0 0 0 0 0 0 .4 0"/><feOffset dx="4.0" dy="4.0" in="blurOut2" result="blurOut3"/><feBlend in="SourceGraphic" in2="blurOut3" mode="normal"/></filter></defs><g><!--MD5=[e4f7fae6ed58524ba242bb0b0d3be6b7]
cluster E2--><g id="cluster_E2"><rect fill="#FFFFFF" filter="url(#f1gh9hkmg8awc4)" height="160" id="E2" style="stroke:#A80036;stroke-width:1.5;" width="180" x="7" y="674.86"/><rect fill="#FFFACD" height="45.412" style="stroke:#A80036;stroke-width:1.5;" width="180" x="7" y="674.86"/><text fill="#000000" font-family="sans-serif" font-size="12" font-style="italic" lengthAdjust="spacing" textLength="68" x="63" y="692.6881">«action  def»</text><text fill="#000000" font-family="sans-serif" font-size="14" lengthAdjust="spacing" textLength="114" x="40" y="711.17">Generate Torque</text></g><!--MD5=[de5ec2e2e8f62f467e546659f5068c88]
cluster E5--><g id="cluster_E5"><rect fill="#FFFFFF" filter="url(#f1gh9hkmg8awc4)" height="151.5" id="E5" style="stroke:#A80036;stroke-width:1.5;" width="172" x="205" y="901.36"/><rect fill="#FFFACD" height="45.412" style="stroke:#A80036;stroke-width:1.5;" width="172" x="205" y="901.36"/><text fill="#000000" font-family="sans-serif" font-size="12" font-style="italic" lengthAdjust="spacing" textLength="68" x="257" y="919.1881">«action  def»</text><text fill="#000000" font-family="sans-serif" font-size="14" lengthAdjust="spacing" textLength="103" x="239.5" y="937.67">Amplify Torque</text></g><!--MD5=[55dfccfc6c49c2d10cd1bd2211a6c90c]
cluster E8--><g id="cluster_E8"><rect fill="#FFFFFF" filter="url(#f1gh9hkmg8awc4)" height="151.5" id="E8" style="stroke:#A80036;stroke-width:1.5;" width="174" x="203" y="1119.36"/><rect fill="#FFFACD" height="45.412" style="stroke:#A80036;stroke-width:1.5;" width="174" x="203" y="1119.36"/><text fill="#000000" font-family="sans-serif" font-size="12" font-style="italic" lengthAdjust="spacing" textLength="68" x="256" y="1137.1881">«action  def»</text><text fill="#000000" font-family="sans-serif" font-size="14" lengthAdjust="spacing" textLength="109" x="235.5" y="1155.67">Transfer Torque</text></g><!--MD5=[917b9dd0c7eca3ee5f47219d1a84c0ad]
cluster E11--><g id="cluster_E11"><rect fill="#FFFFFF" filter="url(#f1gh9hkmg8awc4)" height="247.5" id="E11" style="stroke:#A80036;stroke-width:1.5;" width="144" x="207" y="1337.36"/><rect fill="#FFFACD" height="45.412" style="stroke:#A80036;stroke-width:1.5;" width="144" x="207" y="1337.36"/><text fill="#000000" font-family="sans-serif" font-size="12" font-style="italic" lengthAdjust="spacing" textLength="68" x="245" y="1355.1881">«action  def»</text><text fill="#000000" font-family="sans-serif" font-size="14" lengthAdjust="spacing" textLength="119" x="219.5" y="1373.67">Distribute Torque</text></g><!--MD5=[ab3548ab6224ff035c4047a4d30b7567]
cluster E15--><g id="cluster_E15"><rect fill="#FFFFFF" filter="url(#f1gh9hkmg8awc4)" height="331.36" id="E15" style="stroke:#A80036;stroke-width:1.5;" width="144" x="217" y="343.5"/><rect fill="#FFFACD" height="45.412" style="stroke:#A80036;stroke-width:1.5;" width="144" x="217" y="343.5"/><text fill="#000000" font-family="sans-serif" font-size="12" font-style="italic" lengthAdjust="spacing" textLength="68" x="255" y="361.3281">«action  def»</text><text fill="#000000" font-family="sans-serif" font-size="14" lengthAdjust="spacing" textLength="95" x="241.5" y="379.81">Provide Power</text></g><!--MD5=[7aa1c94561e55dd272896cdcfb9397aa]
cluster E19--><g id="cluster_E19"><rect fill="#FFFFFF" filter="url(#f1gh9hkmg8awc4)" height="1410.36" id="E19" rx="10" ry="10" style="stroke:#A80036;stroke-width:1.5;" width="984" x="415" y="152.5"/><rect fill="#FFFACD" height="45.412" rx="10" ry="10" style="stroke:#FFFACD;stroke-width:1.5;" width="984" x="415" y="152.5"/><rect fill="#FFFACD" height="10" style="stroke:#FFFACD;stroke-width:1.5;" width="984" x="415" y="187.912"/><rect fill="none" height="1410.36" id="E19" rx="10" ry="10" style="stroke:#A80036;stroke-width:1.5;" width="984" x="415" y="152.5"/><text fill="#000000" font-family="sans-serif" font-size="12" font-style="italic" lengthAdjust="spacing" textLength="45" x="884.5" y="170.3281">«action»</text><text fill="#000000" font-family="sans-serif" font-size="14" lengthAdjust="spacing" textLength="97" x="858.5" y="188.81">provide power</text><line style="stroke:#A80036;stroke-width:1.0;" x1="415" x2="1399" y1="197.912" y2="197.912"/></g><!--MD5=[2b498f8700fd69074bf9bb3cdfb8940b]
cluster E23--><g id="cluster_E23"><rect fill="#FFFFFF" filter="url(#f1gh9hkmg8awc4)" height="1195.36" id="E23" rx="10" ry="10" style="stroke:#A80036;stroke-width:1.5;" width="629" x="746" y="343.5"/><rect fill="#FFFACD" height="45.412" rx="10" ry="10" style="stroke:#FFFACD;stroke-width:1.5;" width="629" x="746" y="343.5"/><rect fill="#FFFACD" height="10" style="stroke:#FFFACD;stroke-width:1.5;" width="629" x="746" y="378.912"/><rect fill="none" height="1195.36" id="E23" rx="10" ry="10" style="stroke:#A80036;stroke-width:1.5;" width="629" x="746" y="343.5"/><text fill="#000000" font-family="sans-serif" font-size="12" font-style="italic" lengthAdjust="spacing" textLength="103" x="1009" y="361.3281">«while loop action»</text><text fill="#000000" font-family="sans-serif" font-size="14" lengthAdjust="spacing" text-decoration="line-through" textLength="55" x="1033" y="379.81">noname</text><line style="stroke:#A80036;stroke-width:1.0;" x1="746" x2="1375" y1="388.912" y2="388.912"/></g><!--MD5=[3360037429781029b6dfaf7a43bf1f7b]
cluster E25--><g id="cluster_E25"><rect fill="#FFFFFF" filter="url(#f1gh9hkmg8awc4)" height="1126.86" id="E25" rx="10" ry="10" style="stroke:#A80036;stroke-width:1.5;" width="502" x="849" y="388"/><rect fill="#FFFACD" height="45.412" rx="10" ry="10" style="stroke:#FFFACD;stroke-width:1.5;" width="502" x="849" y="388"/><rect fill="#FFFACD" height="10" style="stroke:#FFFACD;stroke-width:1.5;" width="502" x="849" y="423.412"/><rect fill="none" height="1126.86" id="E25" rx="10" ry="10" style="stroke:#A80036;stroke-width:1.5;" width="502" x="849" y="388"/><text fill="#000000" font-family="sans-serif" font-size="12" font-style="italic" lengthAdjust="spacing" textLength="45" x="1077.5" y="405.8281">«action»</text><text fill="#000000" font-family="sans-serif" font-size="14" lengthAdjust="spacing" textLength="33" x="1083.5" y="424.31">body</text><line style="stroke:#A80036;stroke-width:1.0;" x1="849" x2="1351" y1="433.412" y2="433.412"/></g><!--MD5=[387d1e6cea81d741b41a84a625394172]
cluster E27--><g id="cluster_E27"><rect fill="#FFFFFF" filter="url(#f1gh9hkmg8awc4)" height="955.86" id="E27" rx="10" ry="10" style="stroke:#A80036;stroke-width:1.5;" width="256" x="881" y="527"/><rect fill="#FFFACD" height="45.412" rx="10" ry="10" style="stroke:#FFFACD;stroke-width:1.5;" width="256" x="881" y="527"/><rect fill="#FFFACD" height="10" style="stroke:#FFFACD;stroke-width:1.5;" width="256" x="881" y="562.412"/><rect fill="none" height="955.86" id="E27" rx="10" ry="10" style="stroke:#A80036;stroke-width:1.5;" width="256" x="881" y="527"/><text fill="#000000" font-family="sans-serif" font-size="12" font-style="italic" lengthAdjust="spacing" textLength="45" x="986.5" y="544.8281">«action»</text><text fill="#000000" font-family="sans-serif" font-size="14" lengthAdjust="spacing" text-decoration="line-through" textLength="55" x="981.5" y="563.31">noname</text><line style="stroke:#A80036;stroke-width:1.0;" x1="881" x2="1137" y1="572.412" y2="572.412"/></g><!--MD5=[2f0afd24c78442d4f5bb8ec5a9a774bc]
cluster E28--><g id="cluster_E28"><rect fill="#FFFFFF" filter="url(#f1gh9hkmg8awc4)" height="168.86" id="E28" rx="10" ry="10" style="stroke:#A80036;stroke-width:1.5;" width="123" x="978.3125" y="614"/><rect fill="#FFFACD" height="45.412" rx="10" ry="10" style="stroke:#FFFACD;stroke-width:1.5;" width="123" x="978.3125" y="614"/><rect fill="#FFFACD" height="10" style="stroke:#FFFACD;stroke-width:1.5;" width="123" x="978.3125" y="649.412"/><rect fill="none" height="168.86" id="E28" rx="10" ry="10" style="stroke:#A80036;stroke-width:1.5;" width="123" x="978.3125" y="614"/><text fill="#000000" font-family="sans-serif" font-size="12" font-style="italic" lengthAdjust="spacing" textLength="45" x="1017.3125" y="631.8281">«action»</text><text fill="#000000" font-family="sans-serif" font-size="14" lengthAdjust="spacing" textLength="110" x="984.8125" y="650.31">generate torque</text><line style="stroke:#A80036;stroke-width:1.0;" x1="978.3125" x2="1101.3125" y1="659.412" y2="659.412"/></g><!--MD5=[a4bfb023258c738d7c1473fd173d01a0]
cluster E31--><g id="cluster_E31"><rect fill="#FFFFFF" filter="url(#f1gh9hkmg8awc4)" height="166" id="E31" rx="10" ry="10" style="stroke:#A80036;stroke-width:1.5;" width="113" x="913" y="834.86"/><rect fill="#FFFACD" height="45.412" rx="10" ry="10" style="stroke:#FFFACD;stroke-width:1.5;" width="113" x="913" y="834.86"/><rect fill="#FFFACD" height="10" style="stroke:#FFFACD;stroke-width:1.5;" width="113" x="913" y="870.272"/><rect fill="none" height="166" id="E31" rx="10" ry="10" style="stroke:#A80036;stroke-width:1.5;" width="113" x="913" y="834.86"/><text fill="#000000" font-family="sans-serif" font-size="12" font-style="italic" lengthAdjust="spacing" textLength="45" x="947" y="852.6881">«action»</text><text fill="#000000" font-family="sans-serif" font-size="14" lengthAdjust="spacing" textLength="99" x="920" y="871.17">amplify torque</text><line style="stroke:#A80036;stroke-width:1.0;" x1="913" x2="1026" y1="880.272" y2="880.272"/></g><!--MD5=[e302fcbac4582b63c9970770c719f06b]
cluster E34--><g id="cluster_E34"><rect fill="#FFFFFF" filter="url(#f1gh9hkmg8awc4)" height="166" id="E34" rx="10" ry="10" style="stroke:#A80036;stroke-width:1.5;" width="116" x="913" y="1052.86"/><rect fill="#FFFACD" height="45.412" rx="10" ry="10" style="stroke:#FFFACD;stroke-width:1.5;" width="116" x="913" y="1052.86"/><rect fill="#FFFACD" height="10" style="stroke:#FFFACD;stroke-width:1.5;" width="116" x="913" y="1088.272"/><rect fill="none" height="166" id="E34" rx="10" ry="10" style="stroke:#A80036;stroke-width:1.5;" width="116" x="913" y="1052.86"/><text fill="#000000" font-family="sans-serif" font-size="12" font-style="italic" lengthAdjust="spacing" textLength="45" x="948.5" y="1070.6881">«action»</text><text fill="#000000" font-family="sans-serif" font-size="14" lengthAdjust="spacing" textLength="103" x="919.5" y="1089.17">transfer torque</text><line style="stroke:#A80036;stroke-width:1.0;" x1="913" x2="1029" y1="1098.272" y2="1098.272"/></g><!--MD5=[d3830175e0981549895ee8d9e3caaa09]
cluster E37--><g id="cluster_E37"><rect fill="#FFFFFF" filter="url(#f1gh9hkmg8awc4)" height="166" id="E37" rx="10" ry="10" style="stroke:#A80036;stroke-width:1.5;" width="144" x="928" y="1270.86"/><rect fill="#FFFACD" height="45.412" rx="10" ry="10" style="stroke:#FFFACD;stroke-width:1.5;" width="144" x="928" y="1270.86"/><rect fill="#FFFACD" height="10" style="stroke:#FFFACD;stroke-width:1.5;" width="144" x="928" y="1306.272"/><rect fill="none" height="166" id="E37" rx="10" ry="10" style="stroke:#A80036;stroke-width:1.5;" width="144" x="928" y="1270.86"/><text fill="#000000" font-family="sans-serif" font-size="12" font-style="italic" lengthAdjust="spacing" textLength="45" x="977.5" y="1288.6881">«action»</text><text fill="#000000" font-family="sans-serif" font-size="14" lengthAdjust="spacing" textLength="115" x="942.5" y="1307.17">distribute torque</text><line style="stroke:#A80036;stroke-width:1.0;" x1="928" x2="1072" y1="1316.272" y2="1316.272"/></g><text fill="#000000" font-family="sans-serif" font-size="14" lengthAdjust="spacing" textLength="57" x="68.5" y="652.758">fuelCmd</text><rect fill="#FFFACD" height="12" style="stroke:#181818;stroke-width:1.5;" width="12" x="91" y="668.86"/><text fill="#000000" font-family="sans-serif" font-size="14" lengthAdjust="spacing" textLength="95" x="49.5" y="855.8259">engineTorque</text><rect fill="#FFFACD" height="12" style="stroke:#181818;stroke-width:1.5;" width="12" x="91" y="828.86"/><text fill="#000000" font-family="sans-serif" font-size="14" lengthAdjust="spacing" textLength="95" x="243.5" y="879.258">engineTorque</text><rect fill="#FFFACD" height="12" style="stroke:#181818;stroke-width:1.5;" width="12" x="285" y="895.36"/><text fill="#000000" font-family="sans-serif" font-size="14" lengthAdjust="spacing" textLength="135" x="223.5" y="1073.8259">transmissionTorque</text><rect fill="#FFFACD" height="12" style="stroke:#181818;stroke-width:1.5;" width="12" x="285" y="1046.86"/><text fill="#000000" font-family="sans-serif" font-size="14" lengthAdjust="spacing" textLength="135" x="222.5" y="1097.258">transmissionTorque</text><rect fill="#FFFACD" height="12" style="stroke:#181818;stroke-width:1.5;" width="12" x="284" y="1113.36"/><text fill="#000000" font-family="sans-serif" font-size="14" lengthAdjust="spacing" textLength="116" x="232" y="1291.8259">driveshaftTorque</text><rect fill="#FFFACD" height="12" style="stroke:#181818;stroke-width:1.5;" width="12" x="284" y="1264.86"/><text fill="#000000" font-family="sans-serif" font-size="14" lengthAdjust="spacing" textLength="117" x="225.5" y="1315.258">driveShaftTorque</text><rect fill="#FFFACD" height="12" style="stroke:#181818;stroke-width:1.5;" width="12" x="278" y="1331.36"/><text fill="#000000" font-family="sans-serif" font-size="14" lengthAdjust="spacing" textLength="96" x="177" y="1605.8259">wheelTorque1</text><rect fill="#FFFACD" height="12" style="stroke:#181818;stroke-width:1.5;" width="12" x="219" y="1578.86"/><text fill="#000000" font-family="sans-serif" font-size="14" lengthAdjust="spacing" textLength="96" x="285" y="1605.8259">wheelTorque2</text><rect fill="#FFFACD" height="12" style="stroke:#181818;stroke-width:1.5;" width="12" x="327" y="1578.86"/><text fill="#000000" font-family="sans-serif" font-size="14" lengthAdjust="spacing" textLength="57" x="265.5" y="321.398">fuelCmd</text><rect fill="#FFFACD" height="12" style="stroke:#181818;stroke-width:1.5;" width="12" x="288" y="337.5"/><text fill="#000000" font-family="sans-serif" font-size="14" lengthAdjust="spacing" textLength="96" x="187" y="695.8259">wheelTorque1</text><rect fill="#FFFACD" height="12" style="stroke:#181818;stroke-width:1.5;" width="12" x="229" y="668.86"/><text fill="#000000" font-family="sans-serif" font-size="14" lengthAdjust="spacing" textLength="96" x="295" y="695.8259">wheelTorque2</text><rect fill="#FFFACD" height="12" style="stroke:#181818;stroke-width:1.5;" width="12" x="337" y="668.86"/><text fill="#000000" font-family="sans-serif" font-size="14" lengthAdjust="spacing" textLength="57" x="583.5" y="130.398">fuelCmd</text><rect fill="#FFFACD" height="12" style="stroke:#181818;stroke-width:1.5;" width="12" x="606" y="146.5"/><text fill="#000000" font-family="sans-serif" font-size="14" lengthAdjust="spacing" textLength="96" x="367" y="591.898">wheelTorque1</text><rect fill="#FFFACD" height="12" style="stroke:#181818;stroke-width:1.5;" width="12" x="409" y="608"/><text fill="#000000" font-family="sans-serif" font-size="14" lengthAdjust="spacing" textLength="96" x="475" y="591.898">wheelTorque2</text><rect fill="#FFFACD" height="12" style="stroke:#181818;stroke-width:1.5;" width="12" x="517" y="608"/><text fill="#000000" font-family="sans-serif" font-size="14" lengthAdjust="spacing" textLength="64" x="732" y="321.398">whileTest</text><rect fill="#FFFACD" height="12" style="stroke:#181818;stroke-width:1.5;" width="12" x="758" y="337.5"/><!--MD5=[366143b9fcb1b40a7c5ca190e86fd547]
entity E26--><g id="elem_E26"><polygon fill="#FFFACD" filter="url(#f1gh9hkmg8awc4)" points="1031.5,445,1031.5,503.1358,1226.5,503.1358,1206.5,474.0679,1226.5,445" style="stroke:#181818;stroke-width:0.5;"/><text fill="#000000" font-family="sans-serif" font-size="14" font-style="italic" lengthAdjust="spacing" textLength="97" x="1073" y="469.9659">«accept action»</text><text fill="#000000" font-family="sans-serif" font-size="14" lengthAdjust="spacing" textLength="166" x="1038.5" y="489.0339">engineStart: EngineStart</text></g><!--MD5=[97a9c84c6a083638013ef2399eb706a1]
entity E41--><g id="elem_E41"><polygon fill="#FFFACD" filter="url(#f1gh9hkmg8awc4)" points="1161.5,645.86,1161.5,703.9958,1334.5,703.9958,1314.5,674.9279,1334.5,645.86" style="stroke:#181818;stroke-width:0.5;"/><text fill="#000000" font-family="sans-serif" font-size="14" font-style="italic" lengthAdjust="spacing" textLength="97" x="1192" y="670.8259">«accept action»</text><text fill="#000000" font-family="sans-serif" font-size="14" lengthAdjust="spacing" textLength="144" x="1168.5" y="689.8939">engineOff: EngineOff</text></g><text fill="#000000" font-family="sans-serif" font-size="14" lengthAdjust="spacing" textLength="57" x="973.5" y="591.898">fuelCmd</text><rect fill="#FFFACD" height="12" style="stroke:#181818;stroke-width:1.5;" width="12" x="996" y="608"/><text fill="#000000" font-family="sans-serif" font-size="14" lengthAdjust="spacing" textLength="95" x="949.5" y="803.8259">engineTorque</text><rect fill="#FFFACD" height="12" style="stroke:#181818;stroke-width:1.5;" width="12" x="991" y="776.86"/><text fill="#000000" font-family="sans-serif" font-size="14" lengthAdjust="spacing" textLength="95" x="949.5" y="812.758">engineTorque</text><rect fill="#FFFACD" height="12" style="stroke:#181818;stroke-width:1.5;" width="12" x="991" y="828.86"/><text fill="#000000" font-family="sans-serif" font-size="14" lengthAdjust="spacing" textLength="135" x="930.5" y="1021.8259">transmissionTorque</text><rect fill="#FFFACD" height="12" style="stroke:#181818;stroke-width:1.5;" width="12" x="992" y="994.86"/><text fill="#000000" font-family="sans-serif" font-size="14" lengthAdjust="spacing" textLength="135" x="930.5" y="1030.758">transmissionTorque</text><rect fill="#FFFACD" height="12" style="stroke:#181818;stroke-width:1.5;" width="12" x="992" y="1046.86"/><text fill="#000000" font-family="sans-serif" font-size="14" lengthAdjust="spacing" textLength="116" x="947" y="1239.8259">driveshaftTorque</text><rect fill="#FFFACD" height="12" style="stroke:#181818;stroke-width:1.5;" width="12" x="999" y="1212.86"/><text fill="#000000" font-family="sans-serif" font-size="14" lengthAdjust="spacing" textLength="116" x="947" y="1248.758">driveshaftTorque</text><rect fill="#FFFACD" height="12" style="stroke:#181818;stroke-width:1.5;" width="12" x="999" y="1264.86"/><text fill="#000000" font-family="sans-serif" font-size="14" lengthAdjust="spacing" textLength="96" x="898" y="1457.8259">wheelTorque1</text><rect fill="#FFFACD" height="12" style="stroke:#181818;stroke-width:1.5;" width="12" x="940" y="1430.86"/><text fill="#000000" font-family="sans-serif" font-size="14" lengthAdjust="spacing" textLength="96" x="1006" y="1457.8259">wheelTorque2</text><rect fill="#FFFACD" height="12" style="stroke:#181818;stroke-width:1.5;" width="12" x="1048" y="1430.86"/><g id="elem_E1"><path d="M71,6 L71,299.2963 L385,299.2963 L385,16 L375,6 L71,6 " fill="#FEFFDD" filter="url(#f1gh9hkmg8awc4)" style="stroke:#181818;stroke-width:0.5;"/><path d="M375,6 L375,16 L385,16 L375,6 " fill="#FEFFDD" style="stroke:#181818;stroke-width:1.0;"/><text fill="#000000" font-family="sans-serif" font-size="13" lengthAdjust="spacing" textLength="155" x="77" y="24.897">source: item 4-12.2 torque</text><text fill="#000000" font-family="sans-serif" font-size="13" lengthAdjust="spacing" textLength="121" x="77" y="42.603">symbol(s): `T`, `M_Q`</text><text fill="#000000" font-family="sans-serif" font-size="13" lengthAdjust="spacing" textLength="165" x="77" y="60.309">application domain: generic</text><text fill="#000000" font-family="sans-serif" font-size="13" lengthAdjust="spacing" textLength="83" x="77" y="78.0151">name: Torque</text><text fill="#000000" font-family="sans-serif" font-size="13" lengthAdjust="spacing" textLength="209" x="77" y="95.7211">quantity dimension: L^2*M^1*T^-2</text><text fill="#000000" font-family="sans-serif" font-size="13" lengthAdjust="spacing" textLength="245" x="77" y="113.4271">measurement unit(s): N*m, kg*m^2*s^-2</text><text fill="#000000" font-family="sans-serif" font-size="13" lengthAdjust="spacing" textLength="88" x="77" y="131.1331">tensor order: 0</text><text fill="#000000" font-family="sans-serif" font-size="13" lengthAdjust="spacing" textLength="253" x="77" y="148.8391">definition: quantity described by the scalar</text><text fill="#000000" font-family="sans-serif" font-size="13" lengthAdjust="spacing" textLength="283" x="77" y="166.5451">product: `T = vec(M)*vec(e_Q)` where `vec(M)` is</text><text fill="#000000" font-family="sans-serif" font-size="13" lengthAdjust="spacing" textLength="276" x="77" y="184.2512">moment of force (item 4-12.1) and `vec(e_Q)` is</text><text fill="#000000" font-family="sans-serif" font-size="13" lengthAdjust="spacing" textLength="289" x="77" y="201.9572">unit vector of direction with respect to which the</text><text fill="#000000" font-family="sans-serif" font-size="13" lengthAdjust="spacing" textLength="122" x="77" y="219.6632">torque is considered</text><text fill="#000000" font-family="sans-serif" font-size="13" lengthAdjust="spacing" textLength="262" x="77" y="237.3692">remarks: For example, torque is the twisting</text><text fill="#000000" font-family="sans-serif" font-size="13" lengthAdjust="spacing" textLength="290" x="77" y="255.0752">moment of force with respect to the longitudinal</text><text fill="#000000" font-family="sans-serif" font-size="13" lengthAdjust="spacing" textLength="137" x="77" y="272.7812">axis of a beam or shaft.</text><text fill="#000000" font-family="sans-serif" font-size="13" lengthAdjust="spacing" textLength="3" x="77" y="290.4873"> </text></g><!--MD5=[57a2a3b2b3d3cdd3962b0f7f4ea54246]
link E19 to E15--><g id="link_E19_E15"><path d="M414.428,421.7613 C413.3748,422.2008 412.3249,422.6391 411.2784,423.0763 C409.1856,423.9505 407.1066,424.82 405.0428,425.684 C396.7874,429.14 388.7742,432.5091 381.0834,435.7537 C380.1221,436.1593 379.1658,436.563 378.2147,436.9646 C377.9769,437.065 377.7394,437.1653 377.5023,437.2654 C377.3837,437.3155 377.2653,437.3656 377.1469,437.4156 " fill="none" id="E19-to-E15" style="stroke:#181818;stroke-width:1.0;"/><polygon fill="#FFFFFF" points="377.1469,437.4156,391.9256,423.574,397.3733,436.4707,377.1469,437.4156" style="stroke:#181818;stroke-width:1.0;"/><ellipse cx="397.9546" cy="423.1984" fill="#181818" rx="2" ry="2" style="stroke:#181818;stroke-width:1.0;"/><ellipse cx="401.8458" cy="432.4103" fill="#181818" rx="2" ry="2" style="stroke:#181818;stroke-width:1.0;"/></g><!--MD5=[32c5ef17634e14ed7d06c093ec6f78fa]
link E26 to E27--><g id="link_E26_E27"><path d="M1129,503.26 C1129,508.2275 1129,513.6341 1129,519.2964 C1129,520.712 1129,522.1436 1129,523.5883 C1129,524.3106 1129,525.0363 1129,525.7648 C1129,526.1291 1129,526.4941 1129,526.8598 " fill="none" id="E26-to-E27" style="stroke:#181818;stroke-width:1.0;stroke-dasharray:7.0,7.0;"/><polygon fill="#181818" points="1129,526.8598,1133,517.8598,1129,521.8598,1125,517.8598,1129,526.8598" style="stroke:#181818;stroke-width:1.0;"/></g><!--MD5=[010c8d8bdbd60fc4b6f166ba30ef74f9]
link E28 to E2--><g id="link_E28_E2"><path d="M937.28,680.97 C854.195,687.535 702.5625,699.515 550.7438,711.51 C474.8344,717.5075 398.8784,723.5088 331.4211,728.8387 C297.6924,731.5037 266.0884,734.0009 237.6772,736.2459 C223.4716,737.3684 210.0641,738.4279 197.5884,739.4137 C194.4695,739.6602 191.4088,739.9021 188.4084,740.1392 " fill="none" id="E28-to-E2" style="stroke:#181818;stroke-width:1.0;"/><polygon fill="#FFFFFF" points="188.4084,740.1392,206.7979,731.6642,207.9008,745.6206,188.4084,740.1392" style="stroke:#181818;stroke-width:1.0;"/><ellipse cx="212.6378" cy="733.2089" fill="#181818" rx="2" ry="2" style="stroke:#181818;stroke-width:1.0;"/><ellipse cx="213.4256" cy="743.1778" fill="#181818" rx="2" ry="2" style="stroke:#181818;stroke-width:1.0;"/></g><!--MD5=[c786ccb922981e5b5fef30c5c2aa2e27]
link E30 to E32--><g id="link_E30_E32"><path d="M997,789.21 C997,797.37 997,813.08 997,823.52 " fill="none" id="E30-to-E32" style="stroke:#181818;stroke-width:1.0;"/><polygon fill="#181818" points="997,828.7,1001,819.7,997,823.7,993,819.7,997,828.7" style="stroke:#181818;stroke-width:1.0;"/></g><!--MD5=[c6c6eb2dfb75c15b4a6180077453b8f5]
link E31 to E5--><g id="link_E31_E5"><path d="M912.2974,909.9215 C911.7,909.9748 911.1001,910.0283 910.4977,910.082 C900.8596,910.942 890.5874,911.8585 879.7711,912.8236 C858.1386,914.7537 834.3301,916.878 809.0658,919.1322 C758.5372,923.6406 702.1856,928.6687 645.7738,933.7025 C589.3619,938.7362 532.8897,943.7756 482.1198,948.3066 C456.7349,950.572 432.7756,952.7104 410.9622,954.6574 C400.0555,955.6309 389.6852,956.5565 379.9415,957.4263 C379.3325,957.4807 378.726,957.5348 378.1219,957.5887 C377.8199,957.6157 377.5185,957.6426 377.2177,957.6695 " fill="none" id="E31-to-E5" style="stroke:#181818;stroke-width:1.0;"/><polygon fill="#FFFFFF" points="377.2177,957.6695,395.5201,949.0078,396.7648,962.9524,377.2177,957.6695" style="stroke:#181818;stroke-width:1.0;"/><ellipse cx="401.3753" cy="950.4931" fill="#181818" rx="2" ry="2" style="stroke:#181818;stroke-width:1.0;"/><ellipse cx="402.2644" cy="960.4535" fill="#181818" rx="2" ry="2" style="stroke:#181818;stroke-width:1.0;"/></g><!--MD5=[31874642fb3bcdcf44b256911cca90e6]
link E33 to E35--><g id="link_E33_E35"><path d="M998,1007.21 C998,1015.37 998,1031.08 998,1041.52 " fill="none" id="E33-to-E35" style="stroke:#181818;stroke-width:1.0;"/><polygon fill="#181818" points="998,1046.7,1002,1037.7,998,1041.7,994,1037.7,998,1046.7" style="stroke:#181818;stroke-width:1.0;"/></g><!--MD5=[98f9d7aab5115cef20c0700119a1619c]
link E34 to E8--><g id="link_E34_E8"><path d="M911.4744,1128.0568 C910.875,1128.1101 910.2731,1128.1637 909.6688,1128.2175 C899.9998,1129.078 889.7083,1129.9938 878.8829,1130.9572 C857.232,1132.8839 833.4452,1135.0006 808.2305,1137.2444 C757.8009,1141.7319 701.6594,1146.7275 645.4688,1151.7275 C589.2781,1156.7275 533.0384,1161.7319 482.4127,1166.2369 C457.0998,1168.4894 433.1904,1170.617 411.3923,1172.5569 C400.4933,1173.5268 390.1221,1174.4498 380.3672,1175.3179 C379.7575,1175.3722 379.1502,1175.4262 378.5454,1175.48 C378.243,1175.507 377.9411,1175.5338 377.6399,1175.5606 " fill="none" id="E34-to-E8" style="stroke:#181818;stroke-width:1.0;"/><polygon fill="#FFFFFF" points="377.6399,1175.5606,395.9446,1166.9039,397.1857,1180.8488,377.6399,1175.5606" style="stroke:#181818;stroke-width:1.0;"/><ellipse cx="401.7995" cy="1168.3907" fill="#181818" rx="2" ry="2" style="stroke:#181818;stroke-width:1.0;"/><ellipse cx="402.6859" cy="1178.3514" fill="#181818" rx="2" ry="2" style="stroke:#181818;stroke-width:1.0;"/></g><!--MD5=[1e71575b7d02bde6a7103c14a4303c67]
link E36 to E38--><g id="link_E36_E38"><path d="M1005,1225.21 C1005,1233.37 1005,1249.08 1005,1259.52 " fill="none" id="E36-to-E38" style="stroke:#181818;stroke-width:1.0;"/><polygon fill="#181818" points="1005,1264.7,1009,1255.7,1005,1259.7,1001,1255.7,1005,1264.7" style="stroke:#181818;stroke-width:1.0;"/></g><!--MD5=[ded9a649e48f669c70619309544f3b8e]
link E37 to E11--><g id="link_E37_E11"><path d="M927.5805,1345.1261 C926.4489,1345.225 925.3073,1345.3247 924.1557,1345.4254 C919.5497,1345.8279 914.786,1346.2442 909.8749,1346.6734 C900.0528,1347.5318 889.6415,1348.4417 878.7248,1349.3956 C856.8915,1351.3036 833.0368,1353.3882 807.8311,1355.5908 C757.4197,1359.9959 701.6044,1364.8731 645.7488,1369.7537 C589.8931,1374.6344 533.9972,1379.5184 483.4245,1383.9373 C458.1382,1386.1468 434.1827,1388.24 412.2285,1390.1583 C401.2513,1391.1174 390.7745,1392.0328 380.8819,1392.8972 C379.6453,1393.0053 378.4178,1393.1125 377.1996,1393.219 " fill="none" id="E37-to-E11" style="stroke:#181818;stroke-width:1.0;"/><polygon fill="#FFFFFF" points="377.1996,1393.219,395.5182,1384.5917,396.7369,1398.5385,377.1996,1393.219" style="stroke:#181818;stroke-width:1.0;"/><ellipse cx="401.3707" cy="1386.0879" fill="#181818" rx="2" ry="2" style="stroke:#181818;stroke-width:1.0;"/><ellipse cx="402.2411" cy="1396.05" fill="#181818" rx="2" ry="2" style="stroke:#181818;stroke-width:1.0;"/></g><!--MD5=[09e6bc68b7f6ec9485ad5fc0fff14a80]
link E27 to E41--><g id="link_E27_E41"><path d="M1137.007,618.9586 C1137.0658,618.9877 1137.1248,619.0169 1137.1842,619.0462 C1137.3029,619.105 1137.4227,619.1642 1137.5436,619.2241 C1138.5108,619.7026 1139.5485,620.2159 1140.6503,620.761 C1142.8538,621.8511 1145.3141,623.0681 1147.9813,624.3875 C1158.65,629.665 1172.63,636.58 1186.74,643.56 " fill="none" id="E27-to-E41" style="stroke:#181818;stroke-width:1.0;stroke-dasharray:7.0,7.0;"/><polygon fill="#181818" points="1191.27,645.8,1184.9703,638.2295,1186.7865,643.5868,1181.4291,645.4031,1191.27,645.8" style="stroke:#181818;stroke-width:1.0;"/></g><!--MD5=[60fe9713ce1efc4e71f249b281e18f04]
@startuml
skin sysmlc
skinparam wrapWidth 300
hide circle
skinparam ranksep 8

rec def "Generate Torque" as E2  <<(T,blue) action  def>> {
portin "fuelCmd" as E3  
portout "engineTorque" as E4  
}

note as E1
source: item 4-12.2 torque
symbol(s): `T`, `M_Q`
application domain: generic
name: Torque
quantity dimension: L^2*M^1*T^-2
measurement unit(s): N*m, kg*m^2*s^-2
tensor order: 0
definition: quantity described by the scalar product: `T = vec(M)*vec(e_Q)` where `vec(M)` is moment of force (item 4-12.1) and `vec(e_Q)` is unit vector of direction with respect to which the torque is considered
remarks: For example, torque is the twisting moment of force with respect to the longitudinal axis of a beam or shaft.

end note 
rec def "Amplify Torque" as E5  <<(T,blue) action  def>> {
portin "engineTorque" as E6  
portout "transmissionTorque" as E7  
}

rec def "Transfer Torque" as E8  <<(T,blue) action  def>> {
portin "transmissionTorque" as E9  
portout "driveshaftTorque" as E10  
}

rec def "Distribute Torque" as E11  <<(T,blue) action  def>> {
portin "driveShaftTorque" as E12  
portout "wheelTorque1" as E13  
portout "wheelTorque2" as E14  
}

rec def "Provide Power" as E15  <<(T,blue) action  def>> {
portin "fuelCmd" as E16  
portout "wheelTorque1" as E17  
portout "wheelTorque2" as E18  
}

rec usage "provide power" as E19  <<(T,blue) action>> {
portin "fuelCmd" as E20  
portout "wheelTorque1" as E21  
portout "wheelTorque2" as E22  
rec usage "<s>noname</s>" as E23  <<(T,blue) while loop action>> {
portin "whileTest" as E24  
rec usage "body" as E25  <<(T,blue) action>> {
accept "engineStart: EngineStart" as E26  << accept action>> 
rec usage "<s>noname</s>" as E27  <<(T,blue) action>> {
rec usage "generate torque" as E28  <<(T,blue) action>> {
portin "fuelCmd" as E29  
portout "engineTorque" as E30  
}

rec usage "amplify torque" as E31  <<(T,blue) action>> {
portin "engineTorque" as E32  
portout "transmissionTorque" as E33  
}

rec usage "transfer torque" as E34  <<(T,blue) action>> {
portin "transmissionTorque" as E35  
portout "driveshaftTorque" as E36  
}

rec usage "distribute torque" as E37  <<(T,blue) action>> {
portin "driveshaftTorque" as E38  
portout "wheelTorque1" as E39  
portout "wheelTorque2" as E40  
}

}

accept "engineOff: EngineOff" as E41  << accept action>> 
}

}

}

E19 - -:|> E15 
E26 ..> E27 
E28 - -:|> E2 
E30 - -> E32 
E31 - -:|> E5 
E33 - -> E35 
E34 - -:|> E8 
E36 - -> E38 
E37 - -:|> E11 
E27 ..> E41 
@enduml

PlantUML version 1.2022.7(Mon Aug 22 13:01:30 EDT 2022)
(EPL source distribution)
Java Runtime: OpenJDK Runtime Environment
JVM: OpenJDK 64-Bit Server VM
Default Encoding: UTF-8
Language: en
Country: US
--></g></svg>