<?xml version="1.0" encoding="UTF-8" standalone="no"?><svg xmlns="http://www.w3.org/2000/svg" xmlns:xlink="http://www.w3.org/1999/xlink" contentStyleType="text/css" height="374px" preserveAspectRatio="none" style="width:2320px;height:374px;background:#FFFFFF;" version="1.1" viewBox="0 0 2320 374" width="2320px" zoomAndPan="magnify"><defs><filter height="300%" id="f140wrqdeiu18u" width="300%" x="-1" y="-1"><feGaussianBlur result="blurOut" stdDeviation="2.0"/><feColorMatrix in="blurOut" result="blurOut2" type="matrix" values="0 0 0 0 0 0 0 0 0 0 0 0 0 0 0 0 0 0 .4 0"/><feOffset dx="4.0" dy="4.0" in="blurOut2" result="blurOut3"/><feBlend in="SourceGraphic" in2="blurOut3" mode="normal"/></filter></defs><g><!--MD5=[e4f7fae6ed58524ba242bb0b0d3be6b7]
cluster E2--><g id="cluster_E2"><rect fill="#FFFFFF" filter="url(#f140wrqdeiu18u)" height="224" id="E2" rx="10" ry="10" style="stroke:#A80036;stroke-width:1.5;" width="108" x="144.5" y="138"/><rect fill="#FFFACD" height="45.412" rx="10" ry="10" style="stroke:#FFFACD;stroke-width:1.5;" width="108" x="144.5" y="138"/><rect fill="#FFFACD" height="10" style="stroke:#FFFACD;stroke-width:1.5;" width="108" x="144.5" y="173.412"/><rect fill="none" height="224" id="E2" rx="10" ry="10" style="stroke:#A80036;stroke-width:1.5;" width="108" x="144.5" y="138"/><text fill="#000000" font-family="sans-serif" font-size="12" font-style="italic" lengthAdjust="spacing" textLength="77" x="160" y="155.8281">«exhibit state»</text><text fill="#000000" font-family="sans-serif" font-size="14" lengthAdjust="spacing" textLength="88" x="154.5" y="174.31">vehicleStates</text><line style="stroke:#A80036;stroke-width:1.0;" x1="144.5" x2="252.5" y1="183.412" y2="183.412"/></g><ellipse cx="211.5" cy="205" fill="#222222" filter="url(#f140wrqdeiu18u)" rx="10" ry="10" style="stroke:none;stroke-width:1.0;"/><g><rect fill="#FFFACD" filter="url(#f140wrqdeiu18u)" height="50.412" id="E3" rx="10" ry="10" style="stroke:#A80036;stroke-width:1.5;" width="50" x="186.5" y="238"/><text fill="#000000" font-family="sans-serif" font-size="12" font-style="italic" lengthAdjust="spacing" textLength="38" x="192.5" y="255.8281">«state»</text><text fill="#000000" font-family="sans-serif" font-size="14" lengthAdjust="spacing" textLength="17" x="203" y="274.31">on</text></g><g><rect fill="#FFFACD" filter="url(#f140wrqdeiu18u)" height="50.412" id="E4" rx="10" ry="10" style="stroke:#A80036;stroke-width:1.5;" width="50" x="186.5" y="296"/><text fill="#000000" font-family="sans-serif" font-size="12" font-style="italic" lengthAdjust="spacing" textLength="38" x="192.5" y="313.8281">«state»</text><text fill="#000000" font-family="sans-serif" font-size="14" lengthAdjust="spacing" textLength="18" x="202.5" y="332.31">off</text></g><g><rect fill="#FFFACD" filter="url(#f140wrqdeiu18u)" height="50.412" id="E9" rx="10" ry="10" style="stroke:#A80036;stroke-width:1.5;" width="120" x="423.5" y="180"/><text fill="#000000" font-family="sans-serif" font-size="12" font-style="italic" lengthAdjust="spacing" textLength="48" x="459.5" y="197.8281">«exhibit»</text><text fill="#000000" font-family="sans-serif" font-size="14" lengthAdjust="spacing" textLength="109" x="429" y="216.31">vehicleStates.on</text></g><g><rect fill="#FFFACD" filter="url(#f140wrqdeiu18u)" height="50.412" id="E11" rx="10" ry="10" style="stroke:#A80036;stroke-width:1.5;" width="120" x="268.5" y="180"/><text fill="#000000" font-family="sans-serif" font-size="12" font-style="italic" lengthAdjust="spacing" textLength="48" x="304.5" y="197.8281">«exhibit»</text><text fill="#000000" font-family="sans-serif" font-size="14" lengthAdjust="spacing" textLength="109" x="274" y="216.31">vehicleStates.on</text></g><g><rect fill="#FFFACD" filter="url(#f140wrqdeiu18u)" height="50.412" id="E12" rx="10" ry="10" style="stroke:#A80036;stroke-width:1.5;" width="121" x="7" y="238"/><text fill="#000000" font-family="sans-serif" font-size="12" font-style="italic" lengthAdjust="spacing" textLength="48" x="43.5" y="255.8281">«exhibit»</text><text fill="#000000" font-family="sans-serif" font-size="14" lengthAdjust="spacing" textLength="110" x="12.5" y="274.31">vehicleStates.off</text></g><g id="elem_E1"><path d="M670.5,23.5 L670.5,104.3241 L978.5,104.3241 L978.5,33.5 L968.5,23.5 L670.5,23.5 " fill="#FEFFDD" filter="url(#f140wrqdeiu18u)" style="stroke:#181818;stroke-width:0.5;"/><path d="M968.5,23.5 L968.5,33.5 L978.5,33.5 L968.5,23.5 " fill="#FEFFDD" style="stroke:#181818;stroke-width:1.0;"/><text fill="#000000" font-family="sans-serif" font-size="13" lengthAdjust="spacing" textLength="284" x="676.5" y="42.397">Note that space and time coordinatization have</text><text fill="#000000" font-family="sans-serif" font-size="13" lengthAdjust="spacing" textLength="21" x="676.5" y="60.103">not</text><text fill="#000000" font-family="sans-serif" font-size="13" lengthAdjust="spacing" textLength="138" x="676.5" y="77.809">been fully specified yet.</text><text fill="#000000" font-family="sans-serif" font-size="13" lengthAdjust="spacing" textLength="3" x="676.5" y="95.5151"> </text></g><g id="elem_E5"><path d="M1014,14.5 L1014,113.0301 L1333,113.0301 L1333,24.5 L1323,14.5 L1014,14.5 " fill="#FEFFDD" filter="url(#f140wrqdeiu18u)" style="stroke:#181818;stroke-width:0.5;"/><path d="M1323,14.5 L1323,24.5 L1333,24.5 L1323,14.5 " fill="#FEFFDD" style="stroke:#181818;stroke-width:1.0;"/><text fill="#000000" font-family="sans-serif" font-size="13" lengthAdjust="spacing" textLength="295" x="1020" y="33.397">An individual definition restricts the instances of a</text><text fill="#000000" font-family="sans-serif" font-size="13" lengthAdjust="spacing" textLength="63" x="1020" y="51.103">part def to</text><text fill="#000000" font-family="sans-serif" font-size="13" lengthAdjust="spacing" textLength="231" x="1020" y="68.809">those that are portions of the same life</text><text fill="#000000" font-family="sans-serif" font-size="13" lengthAdjust="spacing" textLength="67" x="1020" y="86.5151">("identity").</text><text fill="#000000" font-family="sans-serif" font-size="13" lengthAdjust="spacing" textLength="3" x="1020" y="104.2211"> </text></g><g id="elem_E6"><path d="M1368.5,6 L1368.5,122.2361 L1656.5,122.2361 L1656.5,16 L1646.5,6 L1368.5,6 " fill="#FEFFDD" filter="url(#f140wrqdeiu18u)" style="stroke:#181818;stroke-width:0.5;"/><path d="M1646.5,6 L1646.5,16 L1656.5,16 L1646.5,6 " fill="#FEFFDD" style="stroke:#181818;stroke-width:1.0;"/><text fill="#000000" font-family="sans-serif" font-size="13" lengthAdjust="spacing" textLength="242" x="1374.5" y="24.897">An individual usage must be typed by an</text><text fill="#000000" font-family="sans-serif" font-size="13" lengthAdjust="spacing" textLength="121" x="1374.5" y="42.603">individual definition,</text><text fill="#000000" font-family="sans-serif" font-size="13" lengthAdjust="spacing" textLength="264" x="1374.5" y="60.309">representing the condition of that individual</text><text fill="#000000" font-family="sans-serif" font-size="13" lengthAdjust="spacing" textLength="108" x="1374.5" y="78.0151">during some or all</text><text fill="#000000" font-family="sans-serif" font-size="13" lengthAdjust="spacing" textLength="52" x="1374.5" y="95.7211">of its life.</text><text fill="#000000" font-family="sans-serif" font-size="13" lengthAdjust="spacing" textLength="3" x="1374.5" y="113.4271"> </text></g><g id="elem_E7"><path d="M1692,23.5 L1692,104.3241 L1961,104.3241 L1961,33.5 L1951,23.5 L1692,23.5 " fill="#FEFFDD" filter="url(#f140wrqdeiu18u)" style="stroke:#181818;stroke-width:0.5;"/><path d="M1951,23.5 L1951,33.5 L1961,33.5 L1951,23.5 " fill="#FEFFDD" style="stroke:#181818;stroke-width:1.0;"/><text fill="#000000" font-family="sans-serif" font-size="13" lengthAdjust="spacing" textLength="245" x="1698" y="42.397">This is a concise notation for showing the</text><text fill="#000000" font-family="sans-serif" font-size="13" lengthAdjust="spacing" textLength="69" x="1698" y="60.103">redefinition</text><text fill="#000000" font-family="sans-serif" font-size="13" lengthAdjust="spacing" textLength="137" x="1698" y="77.809">of a attribute property.</text><text fill="#000000" font-family="sans-serif" font-size="13" lengthAdjust="spacing" textLength="3" x="1698" y="95.5151"> </text></g><g id="elem_E8"><path d="M1996,23.5 L1996,104.3241 L2313,104.3241 L2313,33.5 L2303,23.5 L1996,23.5 " fill="#FEFFDD" filter="url(#f140wrqdeiu18u)" style="stroke:#181818;stroke-width:0.5;"/><path d="M2303,23.5 L2303,33.5 L2313,33.5 L2303,23.5 " fill="#FEFFDD" style="stroke:#181818;stroke-width:1.0;"/><text fill="#000000" font-family="sans-serif" font-size="13" lengthAdjust="spacing" textLength="293" x="2002" y="42.397">A snapshot is a kind of individual usage restricted</text><text fill="#000000" font-family="sans-serif" font-size="13" lengthAdjust="spacing" textLength="13" x="2002" y="60.103">to</text><text fill="#000000" font-family="sans-serif" font-size="13" lengthAdjust="spacing" textLength="138" x="2002" y="77.809">a single instant of time.</text><text fill="#000000" font-family="sans-serif" font-size="13" lengthAdjust="spacing" textLength="3" x="2002" y="95.5151"> </text></g><g id="elem_E10"><path d="M332,6 L332,122.2361 L635,122.2361 L635,16 L625,6 L332,6 " fill="#FEFFDD" filter="url(#f140wrqdeiu18u)" style="stroke:#181818;stroke-width:0.5;"/><path d="M625,6 L625,16 L635,16 L625,6 " fill="#FEFFDD" style="stroke:#181818;stroke-width:1.0;"/><text fill="#000000" font-family="sans-serif" font-size="13" lengthAdjust="spacing" textLength="252" x="338" y="24.897">This asserts that the snapshot exhibits the</text><text fill="#000000" font-family="sans-serif" font-size="13" lengthAdjust="spacing" textLength="64" x="338" y="42.603">referenced</text><text fill="#000000" font-family="sans-serif" font-size="13" lengthAdjust="spacing" textLength="279" x="338" y="60.309">state, which means that the vehicle must me in</text><text fill="#000000" font-family="sans-serif" font-size="13" lengthAdjust="spacing" textLength="53" x="338" y="78.0151">the state</text><text fill="#000000" font-family="sans-serif" font-size="13" lengthAdjust="spacing" textLength="165" x="338" y="95.7211">at the time of the snapshot.</text><text fill="#000000" font-family="sans-serif" font-size="13" lengthAdjust="spacing" textLength="3" x="338" y="113.4271"> </text></g><!--MD5=[5784957ad6aba600e50c0683d06dcc69]
link *start*E2 to E3--><g id="link_*start*E2_E3"><path d="M211.5,215.25 C211.5,220.1 211.5,226.35 211.5,232.68 " fill="none" id="*start*E2-to-E3" style="stroke:#181818;stroke-width:1.0;stroke-dasharray:7.0,7.0;"/><polygon fill="#181818" points="211.5,238,215.5,229,211.5,233,207.5,229,211.5,238" style="stroke:#181818;stroke-width:1.0;"/></g><!--MD5=[af87c684e3b0d8be13c1a698a818ef1e]
link E3 to E4--><g id="link_E3_E4"><path d="M211.5,288.07 C211.5,288.89 211.5,289.71 211.5,290.53 " fill="none" id="E3-to-E4" style="stroke:#181818;stroke-width:1.0;stroke-dasharray:7.0,7.0;"/><polygon fill="#181818" points="211.5,295.95,215.5,286.95,211.5,290.95,207.5,286.95,211.5,295.95" style="stroke:#181818;stroke-width:1.0;"/></g><!--MD5=[92a97fc68b0cf8efbbf01f4f6b4ceef7]
link E9 to E3--><g id="link_E9_E3"><path d="M423.19,225.67 C417.58,227.24 411.95,228.71 406.5,230 C355.66,242.03 296.29,251.07 256.54,256.42 " fill="none" id="E9-to-E3" style="stroke:#181818;stroke-width:1.0;"/><polygon fill="none" points="257.39,263.37,236.65,259.01,255.58,249.49,257.39,263.37" style="stroke:#181818;stroke-width:1.0;"/></g><!--MD5=[8ec49671253aadf7ca733db3c87e82a8]
link E10 to E9--><g id="link_E10_E9"><path d="M483.5,122.34 C483.5,142.38 483.5,163.82 483.5,179.69 " fill="none" id="E10-E9" style="stroke:#181818;stroke-width:1.0;stroke-dasharray:7.0,7.0;"/></g><!--MD5=[0517f1ce58c4d5483948f93845c45e26]
link E11 to E3--><g id="link_E11_E3"><path d="M278.2,230.07 C270.46,233.78 262.52,237.58 254.94,241.21 " fill="none" id="E11-to-E3" style="stroke:#181818;stroke-width:1.0;"/><polygon fill="none" points="257.7,247.65,236.64,249.97,251.65,235.02,257.7,247.65" style="stroke:#181818;stroke-width:1.0;"/></g><!--MD5=[8eb720c440db06832f98fefdd34bbf11]
link E12 to E4--><g id="link_E12_E4"><path d="M128.15,287.59 C141.41,292.74 155.19,298.1 167.65,302.95 " fill="none" id="E12-to-E4" style="stroke:#181818;stroke-width:1.0;"/><polygon fill="none" points="170.32,296.48,186.43,310.25,165.25,309.52,170.32,296.48" style="stroke:#181818;stroke-width:1.0;"/></g><!--MD5=[afdac8cd3ca3c936388a2933325f44f6]
@startuml
skin sysmlc
skinparam wrapWidth 300
hide circle
skinparam ranksep 8

rec usage "vehicleStates" as E2  << exhibit state>> {
rec usage "on" as E3  <<(T,blue) state>> {
}

rec usage "off" as E4  <<(T,blue) state>> {
}

[*] ..> E3 
}

note as E1
Note that space and time coordinatization have not
been fully specified yet.

end note 
E3 ..> E4 
rec usage "vehicleStates.on" as E9  << exhibit>> {
}

note as E5
An individual definition restricts the instances of a part def to
those that are portions of the same life ("identity").

end note 
note as E6
An individual usage must be typed by an individual definition,
representing the condition of that individual during some or all
of its life.

end note 
note as E7
This is a concise notation for showing the redefinition
of a attribute property.

end note 
note as E8
A snapshot is a kind of individual usage restricted to
a single instant of time.

end note 
note as E10
This asserts that the snapshot exhibits the referenced
state, which means that the vehicle must me in the state
at the time of the snapshot.

end note 
E9 - -|> E3 
E10 .. E9 
rec usage "vehicleStates.on" as E11  << exhibit>> {
}

E11 - -|> E3 
rec usage "vehicleStates.off" as E12  << exhibit>> {
}

E12 - -|> E4 
@enduml

PlantUML version 1.2022.7(Mon Aug 22 13:01:30 EDT 2022)
(EPL source distribution)
Java Runtime: OpenJDK Runtime Environment
JVM: OpenJDK 64-Bit Server VM
Default Encoding: UTF-8
Language: en
Country: US
--></g></svg>